<?xml version="1.0" encoding="UTF-8"?>
<!DOCTYPE svg PUBLIC "-//W3C//DTD SVG 1.1//EN" "http://www.w3.org/Graphics/SVG/1.1/DTD/svg11.dtd">
<svg xmlns="http://www.w3.org/2000/svg" version="1.1" width="874px" height="599px" style="shape-rendering:geometricPrecision; text-rendering:geometricPrecision; image-rendering:optimizeQuality; fill-rule:evenodd; clip-rule:evenodd" xmlns:xlink="http://www.w3.org/1999/xlink">
<g><path style="opacity:1" fill="#fefefe" d="M -0.5,-0.5 C 290.833,-0.5 582.167,-0.5 873.5,-0.5C 873.5,199.167 873.5,398.833 873.5,598.5C 582.167,598.5 290.833,598.5 -0.5,598.5C -0.5,398.833 -0.5,199.167 -0.5,-0.5 Z"/></g>
<g><path style="opacity:1" fill="#fbfbfb" d="M 632.5,40.5 C 632.5,50.8333 632.5,61.1667 632.5,71.5C 632.749,80.8254 631.249,89.8254 628,98.5C 624.427,102.492 619.927,104.658 614.5,105C 605.216,106.644 596.549,105.144 588.5,100.5C 587.667,99.5 586.833,98.5 586,97.5C 584.251,90.9237 583.084,84.2571 582.5,77.5C 582.817,73.2984 582.483,69.2984 581.5,65.5C 581.5,63.8333 581.5,62.1667 581.5,60.5C 581.5,56.5 581.5,52.5 581.5,48.5C 581.263,44.7267 581.763,41.0601 583,37.5C 587.748,34.209 592.581,31.0423 597.5,28C 604.167,27.3333 610.833,27.3333 617.5,28C 621.666,30.9175 625.999,33.5841 630.5,36C 631.582,37.3297 632.249,38.8297 632.5,40.5 Z"/></g>
<g><path style="opacity:1" fill="#323232" d="M 634.5,39.5 C 634.666,49.1724 634.5,58.8391 634,68.5C 633.83,58.991 633.33,49.6577 632.5,40.5C 632.249,38.8297 631.582,37.3297 630.5,36C 625.999,33.5841 621.666,30.9175 617.5,28C 610.833,27.3333 604.167,27.3333 597.5,28C 592.581,31.0423 587.748,34.209 583,37.5C 581.763,41.0601 581.263,44.7267 581.5,48.5C 580.521,45.3752 580.187,42.0419 580.5,38.5C 581.648,36.245 583.314,34.4117 585.5,33C 589.468,30.6803 593.468,28.347 597.5,26C 603.833,25.3333 610.167,25.3333 616.5,26C 621.46,28.147 626.127,30.8136 630.5,34C 632.464,35.451 633.797,37.2843 634.5,39.5 Z"/></g>
<g><path style="opacity:1" fill="#2e2e2e" d="M 260.5,36.5 C 264.388,44.9465 264.388,53.4465 260.5,62C 260.769,63.6075 261.603,64.7741 263,65.5C 263.667,69.5 263.667,73.5 263,77.5C 259.846,80.6521 257.513,84.3187 256,88.5C 255.333,94.8333 255.333,101.167 256,107.5C 257.972,109.232 260.139,110.565 262.5,111.5C 270.519,114.346 277.852,118.513 284.5,124C 296.823,124.491 306.49,129.658 313.5,139.5C 314.167,141.5 314.833,143.5 315.5,145.5C 315.672,146.492 315.338,147.158 314.5,147.5C 311.721,137.554 305.388,131.054 295.5,128C 291.218,126.843 286.884,126.01 282.5,125.5C 282.068,124.29 281.401,123.29 280.5,122.5C 272.176,118.449 264.009,114.115 256,109.5C 255.501,113.152 255.335,116.818 255.5,120.5C 255.5,121.167 255.167,121.5 254.5,121.5C 253.717,111.88 253.217,102.213 253,92.5C 248.018,97.2404 242.185,100.24 235.5,101.5C 228.783,100.225 222.95,97.2248 218,92.5C 217.83,102.342 217.33,112.009 216.5,121.5C 216.826,112.651 216.493,103.984 215.5,95.5C 215.515,91.4402 215.015,87.4402 214,83.5C 208.978,81.1262 206.811,77.1262 207.5,71.5C 207.667,69.5 207.833,67.5 208,65.5C 210.887,62.074 210.887,58.4074 208,54.5C 206.069,34.933 214.903,24.933 234.5,24.5C 240.732,24.6033 246.732,25.77 252.5,28C 256.077,30.0738 258.744,32.9072 260.5,36.5 Z"/></g>
<g><path style="opacity:1" fill="#f2f2f2" d="M 228.5,26.5 C 238.497,25.0989 247.664,27.0989 256,32.5C 261.591,40.5636 262.758,49.2303 259.5,58.5C 259.05,53.617 257.884,48.9503 256,44.5C 254.883,42.8757 253.383,41.8757 251.5,41.5C 246.279,43.9091 240.779,44.9091 235,44.5C 228.86,44.717 223.026,43.8836 217.5,42C 213.336,46.6347 211.336,52.1347 211.5,58.5C 207.55,46.7949 210.217,36.9615 219.5,29C 222.628,28.1588 225.628,27.3254 228.5,26.5 Z"/></g>
<g><path style="opacity:1" fill="#fafafa" d="M 217.5,43.5 C 228.818,47.4026 240.151,47.4026 251.5,43.5C 254.224,45.0658 256.058,47.3991 257,50.5C 257.333,55.1667 257.667,59.8333 258,64.5C 261.34,65.6694 262.84,68.0027 262.5,71.5C 263.024,77.0375 260.691,80.3708 255.5,81.5C 255.762,86.4757 253.762,90.309 249.5,93C 240.708,101.167 231.708,101.5 222.5,94C 217.778,91.1248 215.445,86.9582 215.5,81.5C 210.663,80.3594 208.663,77.1928 209.5,72C 208.843,68.5029 210.009,66.0029 213,64.5C 212.696,57.0481 214.196,50.0481 217.5,43.5 Z"/></g>
<g><path style="opacity:1" fill="#5b5b5b" d="M 580.5,38.5 C 580.187,42.0419 580.521,45.3752 581.5,48.5C 581.5,52.5 581.5,56.5 581.5,60.5C 580.549,61.9187 580.216,63.5853 580.5,65.5C 579.167,56.5 579.167,47.5 580.5,38.5 Z"/></g>
<g><path style="opacity:1" fill="#939393" d="M 634.5,39.5 C 634.833,39.5 635.167,39.5 635.5,39.5C 635.5,50.8333 635.5,62.1667 635.5,73.5C 634.778,72.4489 633.778,71.7822 632.5,71.5C 632.5,61.1667 632.5,50.8333 632.5,40.5C 633.33,49.6577 633.83,58.991 634,68.5C 634.5,58.8391 634.666,49.1724 634.5,39.5 Z"/></g>
<g><path style="opacity:1" fill="#dfdfdf" d="M 260.5,36.5 C 262.017,36.5106 263.184,37.1772 264,38.5C 268.258,48.1392 268.425,57.8059 264.5,67.5C 265.278,69.147 266.444,70.4804 268,71.5C 268.667,75.5 268.667,79.5 268,83.5C 266.622,85.2134 264.955,86.5467 263,87.5C 261.312,95.5227 261.145,103.523 262.5,111.5C 260.139,110.565 257.972,109.232 256,107.5C 255.333,101.167 255.333,94.8333 256,88.5C 257.513,84.3187 259.846,80.6521 263,77.5C 263.667,73.5 263.667,69.5 263,65.5C 261.603,64.7741 260.769,63.6075 260.5,62C 264.388,53.4465 264.388,44.9465 260.5,36.5 Z"/></g>
<g><path style="opacity:1" fill="#6f6f6f" d="M 581.5,65.5 C 582.483,69.2984 582.817,73.2984 582.5,77.5C 581.686,79.631 581.186,81.9644 581,84.5C 579.954,83.228 579.454,81.728 579.5,80C 581.055,75.2845 581.721,70.4512 581.5,65.5 Z"/></g>
<g><path style="opacity:1" fill="#e1e1e1" d="M 635.5,39.5 C 637.888,40.2187 639.388,41.8854 640,44.5C 640.809,54.8804 640.642,65.2137 639.5,75.5C 643.688,82.4129 642.855,88.7462 637,94.5C 636.759,99.4646 634.925,103.631 631.5,107C 632.337,108.011 632.67,109.178 632.5,110.5C 629.234,109.463 627.567,107.13 627.5,103.5C 630.517,96.4323 633.684,89.4323 637,82.5C 637.932,79.1769 637.432,76.1769 635.5,73.5C 635.5,62.1667 635.5,50.8333 635.5,39.5 Z"/></g>
<g><path style="opacity:1" fill="#f9f9f9" d="M 254.5,121.5 C 255.141,122.482 255.807,123.482 256.5,124.5C 251.479,125.244 246.479,126.077 241.5,127C 239.946,128.892 238.112,130.392 236,131.5C 231.549,128.523 226.716,126.523 221.5,125.5C 219.143,125.663 216.81,125.497 214.5,125C 215.056,124.617 215.389,124.117 215.5,123.5C 215.833,122.833 216.167,122.167 216.5,121.5C 217.33,112.009 217.83,102.342 218,92.5C 222.95,97.2248 228.783,100.225 235.5,101.5C 242.185,100.24 248.018,97.2404 253,92.5C 253.217,102.213 253.717,111.88 254.5,121.5 Z"/></g>
<g><path style="opacity:1" fill="#f3f3f3" d="M 628.5,110.5 C 614.167,111.833 599.833,111.833 585.5,110.5C 587.797,108.835 589.13,106.502 589.5,103.5C 601.5,108.833 613.5,108.833 625.5,103.5C 626.132,106.061 627.132,108.395 628.5,110.5 Z"/></g>
<g><path style="opacity:1" fill="#0a0a0a" d="M 215.5,95.5 C 216.493,103.984 216.826,112.651 216.5,121.5C 216.167,122.167 215.833,122.833 215.5,123.5C 214.833,123.5 214.5,123.167 214.5,122.5C 215.436,118.265 215.769,113.931 215.5,109.5C 215.5,108.833 215.167,108.5 214.5,108.5C 215.436,104.265 215.769,99.9315 215.5,95.5 Z"/></g>
<g><path style="opacity:1" fill="#efefef" d="M 215.5,109.5 C 215.769,113.931 215.436,118.265 214.5,122.5C 212.645,124.693 210.311,126.026 207.5,126.5C 201.935,124.859 196.268,123.692 190.5,123C 196.535,118.535 203.202,115.202 210.5,113C 212.196,111.824 213.862,110.657 215.5,109.5 Z"/></g>
<g><path style="opacity:1" fill="#f3f3f3" d="M 280.5,122.5 C 274.741,123.112 269.074,124.445 263.5,126.5C 259.977,125.643 257.31,123.643 255.5,120.5C 255.335,116.818 255.501,113.152 256,109.5C 264.009,114.115 272.176,118.449 280.5,122.5 Z"/></g>
<g><path style="opacity:1" fill="#8a8a8a" d="M 582.5,111.5 C 582.842,110.662 583.508,110.328 584.5,110.5C 584.833,110.5 585.167,110.5 585.5,110.5C 599.833,111.833 614.167,111.833 628.5,110.5C 629.043,110.56 629.376,110.893 629.5,111.5C 613.8,112.802 598.133,112.802 582.5,111.5 Z"/></g>
<g><path style="opacity:1" fill="#242424" d="M 581.5,60.5 C 581.5,62.1667 581.5,63.8333 581.5,65.5C 581.721,70.4512 581.055,75.2845 579.5,80C 579.454,81.728 579.954,83.228 581,84.5C 581.186,81.9644 581.686,79.631 582.5,77.5C 583.084,84.2571 584.251,90.9237 586,97.5C 586.833,98.5 587.667,99.5 588.5,100.5C 596.549,105.144 605.216,106.644 614.5,105C 619.927,104.658 624.427,102.492 628,98.5C 631.249,89.8254 632.749,80.8254 632.5,71.5C 633.778,71.7822 634.778,72.4489 635.5,73.5C 637.432,76.1769 637.932,79.1769 637,82.5C 633.684,89.4323 630.517,96.4323 627.5,103.5C 627.567,107.13 629.234,109.463 632.5,110.5C 632.953,111.458 633.619,112.292 634.5,113C 641.039,115.621 647.373,118.621 653.5,122C 655.74,122.977 658.073,123.477 660.5,123.5C 660.158,124.338 659.492,124.672 658.5,124.5C 656.5,124.5 654.5,124.5 652.5,124.5C 651.508,124.672 650.842,124.338 650.5,123.5C 651.738,123.19 651.738,122.69 650.5,122C 643.811,118.488 636.811,115.821 629.5,114C 614.5,113.333 599.5,113.333 584.5,114C 582.482,114.505 580.482,115.005 578.5,115.5C 577.833,115.5 577.5,115.167 577.5,114.5C 578.965,113.263 580.632,112.263 582.5,111.5C 598.133,112.802 613.8,112.802 629.5,111.5C 629.376,110.893 629.043,110.56 628.5,110.5C 627.132,108.395 626.132,106.061 625.5,103.5C 613.5,108.833 601.5,108.833 589.5,103.5C 589.13,106.502 587.797,108.835 585.5,110.5C 585.167,110.5 584.833,110.5 584.5,110.5C 585.763,108.304 586.763,105.97 587.5,103.5C 584.272,96.5577 581.105,89.5577 578,82.5C 576.957,79.0136 577.624,76.0136 580,73.5C 580.497,70.854 580.664,68.1873 580.5,65.5C 580.216,63.5853 580.549,61.9187 581.5,60.5 Z"/></g>
<g><path style="opacity:1" fill="#8e8e8e" d="M 633.5,76.5 C 634.725,77.1522 635.392,78.3189 635.5,80C 635.546,81.728 635.046,83.228 634,84.5C 633.503,81.854 633.336,79.1873 633.5,76.5 Z"/></g>
<g><path style="opacity:1" fill="#f5f5f5" d="M 650.5,123.5 C 648.407,124.045 646.407,124.878 644.5,126C 641.159,129.045 637.826,132.045 634.5,135C 625.13,133.4 615.63,132.566 606,132.5C 598.445,132.049 591.111,133.049 584,135.5C 578.455,133.976 573.955,130.81 570.5,126C 568.051,125.275 565.717,124.275 563.5,123C 568.282,119.942 573.282,117.442 578.5,115.5C 580.482,115.005 582.482,114.505 584.5,114C 599.5,113.333 614.5,113.333 629.5,114C 636.811,115.821 643.811,118.488 650.5,122C 651.738,122.69 651.738,123.19 650.5,123.5 Z"/></g>
<g><path style="opacity:1" fill="#f7f7f7" d="M 652.5,124.5 C 654.5,124.5 656.5,124.5 658.5,124.5C 663.54,126.179 668.54,128.179 673.5,130.5C 684.541,136.557 690.875,145.891 692.5,158.5C 685.102,157.807 677.769,156.64 670.5,155C 660.193,148.927 650.693,141.76 642,133.5C 641.333,132.5 641.333,131.5 642,130.5C 645.069,127.554 648.569,125.554 652.5,124.5 Z"/></g>
<g><path style="opacity:1" fill="#535353" d="M 660.5,123.5 C 665.773,124.304 670.44,126.304 674.5,129.5C 673.833,129.5 673.5,129.833 673.5,130.5C 668.54,128.179 663.54,126.179 658.5,124.5C 659.492,124.672 660.158,124.338 660.5,123.5 Z"/></g>
<g><path style="opacity:1" fill="#f7f7f7" d="M 150.5,166.5 C 152.346,160.115 154.346,153.781 156.5,147.5C 162.218,131.824 173.551,124.491 190.5,125.5C 194.95,125.46 199.284,126.127 203.5,127.5C 198.022,130.665 193.188,134.665 189,139.5C 183.115,149.718 174.949,157.551 164.5,163C 159.51,163.036 154.844,164.202 150.5,166.5 Z"/></g>
<g><path style="opacity:1" fill="#434343" d="M 255.5,120.5 C 257.31,123.643 259.977,125.643 263.5,126.5C 269.074,124.445 274.741,123.112 280.5,122.5C 281.401,123.29 282.068,124.29 282.5,125.5C 277.327,125.09 272.327,125.757 267.5,127.5C 272.939,130.654 277.772,134.654 282,139.5C 287.833,149.333 295.667,157.167 305.5,163C 310.288,163.724 314.955,164.89 319.5,166.5C 319.833,166.167 320.167,165.833 320.5,165.5C 318.495,159.47 316.495,153.47 314.5,147.5C 315.338,147.158 315.672,146.492 315.5,145.5C 318.733,152.393 321.066,159.726 322.5,167.5C 321.508,167.328 320.842,167.662 320.5,168.5C 313.833,165.686 306.833,164.853 299.5,166C 298.627,167.045 297.627,167.878 296.5,168.5C 296.158,167.662 295.492,167.328 294.5,167.5C 296.428,165.526 298.761,164.026 301.5,163C 296.032,158.533 290.865,153.7 286,148.5C 276.816,132.158 262.982,125.324 244.5,128C 241.403,129.273 238.736,131.107 236.5,133.5C 235.833,132.167 235.167,132.167 234.5,133.5C 229.203,128.586 222.87,126.586 215.5,127.5C 217.5,126.833 219.5,126.167 221.5,125.5C 226.716,126.523 231.549,128.523 236,131.5C 238.112,130.392 239.946,128.892 241.5,127C 246.479,126.077 251.479,125.244 256.5,124.5C 255.807,123.482 255.141,122.482 254.5,121.5C 255.167,121.5 255.5,121.167 255.5,120.5 Z"/></g>
<g><path style="opacity:1" fill="#f7f7f7" d="M 282.5,125.5 C 286.884,126.01 291.218,126.843 295.5,128C 305.388,131.054 311.721,137.554 314.5,147.5C 316.495,153.47 318.495,159.47 320.5,165.5C 320.167,165.833 319.833,166.167 319.5,166.5C 314.955,164.89 310.288,163.724 305.5,163C 295.667,157.167 287.833,149.333 282,139.5C 277.772,134.654 272.939,130.654 267.5,127.5C 272.327,125.757 277.327,125.09 282.5,125.5 Z"/></g>
<g><path style="opacity:1" fill="#fbfbfb" d="M 215.5,127.5 C 222.87,126.586 229.203,128.586 234.5,133.5C 234.5,143.5 234.5,153.5 234.5,163.5C 230.033,174.301 222.033,180.634 210.5,182.5C 205.453,182.663 200.453,182.329 195.5,181.5C 189.202,178.718 183.869,174.551 179.5,169C 176.167,167 172.833,165 169.5,163C 174.968,158.533 180.135,153.7 185,148.5C 190.728,138.724 198.895,131.89 209.5,128C 211.473,127.505 213.473,127.338 215.5,127.5 Z"/></g>
<g><path style="opacity:1" fill="#fafafa" d="M 294.5,167.5 C 290.076,170.418 286.076,173.918 282.5,178C 278.234,180.811 273.567,182.311 268.5,182.5C 265.833,182.5 263.167,182.5 260.5,182.5C 249.347,180.678 241.347,174.678 236.5,164.5C 236.5,154.167 236.5,143.833 236.5,133.5C 238.736,131.107 241.403,129.273 244.5,128C 262.982,125.324 276.816,132.158 286,148.5C 290.865,153.7 296.032,158.533 301.5,163C 298.761,164.026 296.428,165.526 294.5,167.5 Z"/></g>
<g><path style="opacity:1" fill="#131313" d="M 236.5,133.5 C 236.5,143.833 236.5,154.167 236.5,164.5C 235.508,164.672 234.842,164.338 234.5,163.5C 234.5,153.5 234.5,143.5 234.5,133.5C 235.167,132.167 235.833,132.167 236.5,133.5 Z"/></g>
<g><path style="opacity:1" fill="#dfdfdf" d="M 689.5,142.5 C 690.496,142.414 691.329,142.748 692,143.5C 695.682,150.08 698.182,157.08 699.5,164.5C 697.871,163.375 696.371,162.041 695,160.5C 694.392,154.055 692.559,148.055 689.5,142.5 Z"/></g>
<g><path style="opacity:1" fill="#606060" d="M 155.5,145.5 C 155.328,146.492 155.662,147.158 156.5,147.5C 154.346,153.781 152.346,160.115 150.5,166.5C 149.833,166.5 149.167,166.5 148.5,166.5C 150.255,159.236 152.588,152.236 155.5,145.5 Z"/></g>
<g><path style="opacity:1" fill="#f8f8f8" d="M 515.5,216.5 C 514.167,216.5 512.833,216.5 511.5,216.5C 511.737,212.727 511.237,209.06 510,205.5C 507.619,204.565 505.119,204.232 502.5,204.5C 501.5,204.5 500.5,204.5 499.5,204.5C 499.5,203.167 499.5,201.833 499.5,200.5C 499.838,198.146 500.338,195.813 501,193.5C 503.793,189.865 505.96,185.865 507.5,181.5C 511.047,171.776 517.38,164.276 526.5,159C 531.854,158.609 537.188,158.109 542.5,157.5C 543.336,165.831 543.836,174.165 544,182.5C 538.109,192.39 531.443,201.723 524,210.5C 521.401,212.879 518.567,214.879 515.5,216.5 Z"/></g>
<g><path style="opacity:1" fill="#d7d7d7" d="M 313.5,139.5 C 314.496,139.414 315.329,139.748 316,140.5C 321.386,150.513 324.886,160.847 326.5,171.5C 324.833,170.5 323.5,169.167 322.5,167.5C 321.066,159.726 318.733,152.393 315.5,145.5C 314.833,143.5 314.167,141.5 313.5,139.5 Z"/></g>
<g><path style="opacity:1" fill="#fafafa" d="M 146.5,218.5 C 143.15,218.665 139.817,218.498 136.5,218C 136,217.5 135.5,217 135,216.5C 133.596,210.956 133.096,205.29 133.5,199.5C 134.679,195.116 136.013,190.783 137.5,186.5C 142.794,170.518 153.794,163.685 170.5,166C 173,167.167 174.833,169 176,171.5C 177.209,177.886 176.209,183.886 173,189.5C 165.953,197.545 159.287,205.878 153,214.5C 151.362,216.734 149.195,218.067 146.5,218.5 Z"/></g>
<g><path style="opacity:1" fill="#f9f9f9" d="M 320.5,168.5 C 333.208,180.274 339.041,194.941 338,212.5C 336.42,217.294 333.087,219.294 328,218.5C 325.37,218.536 322.87,218.036 320.5,217C 313.378,207.543 305.878,198.376 298,189.5C 294.18,182.656 293.68,175.656 296.5,168.5C 297.627,167.878 298.627,167.045 299.5,166C 306.833,164.853 313.833,165.686 320.5,168.5 Z"/></g>
<g><path style="opacity:1" fill="#2f2f2f" d="M 214.5,108.5 C 215.167,108.5 215.5,108.833 215.5,109.5C 213.862,110.657 212.196,111.824 210.5,113C 203.202,115.202 196.535,118.535 190.5,123C 196.268,123.692 201.935,124.859 207.5,126.5C 210.311,126.026 212.645,124.693 214.5,122.5C 214.5,123.167 214.833,123.5 215.5,123.5C 215.389,124.117 215.056,124.617 214.5,125C 216.81,125.497 219.143,125.663 221.5,125.5C 219.5,126.167 217.5,126.833 215.5,127.5C 213.473,127.338 211.473,127.505 209.5,128C 198.895,131.89 190.728,138.724 185,148.5C 180.135,153.7 174.968,158.533 169.5,163C 172.833,165 176.167,167 179.5,169C 183.869,174.551 189.202,178.718 195.5,181.5C 193.145,182.958 193.478,184.292 196.5,185.5C 199.833,188.5 203.167,191.5 206.5,194.5C 207.671,195.345 209.005,196.011 210.5,196.5C 211.105,201.412 211.105,206.412 210.5,211.5C 210.799,213.604 210.466,215.604 209.5,217.5C 209.167,216.833 208.833,216.167 208.5,215.5C 209.156,213.547 209.489,211.547 209.5,209.5C 209.665,206.15 209.498,202.817 209,199.5C 198.796,190.495 188.963,181.162 179.5,171.5C 176.513,181.977 176.846,192.31 180.5,202.5C 180.5,203.167 180.167,203.5 179.5,203.5C 179.204,201.597 178.537,199.93 177.5,198.5C 177.23,195.298 176.396,192.298 175,189.5C 166.667,199.833 158.333,210.167 150,220.5C 144.586,230.331 138.919,239.998 133,249.5C 125.6,257.57 117.6,264.904 109,271.5C 105.778,275.385 104.945,279.718 106.5,284.5C 105.626,287.92 104.459,291.253 103,294.5C 102.727,299.229 102.061,303.896 101,308.5C 99.6439,309.38 98.1439,309.714 96.5,309.5C 97.5,308.833 98.5,308.167 99.5,307.5C 100.207,299.576 101.874,291.91 104.5,284.5C 104.639,282.117 103.972,280.117 102.5,278.5C 102.5,277.833 102.5,277.167 102.5,276.5C 111.443,267.728 120.609,259.061 130,250.5C 136.268,241.633 141.768,232.3 146.5,222.5C 147.289,222.217 147.956,221.717 148.5,221C 145.183,220.502 141.85,220.335 138.5,220.5C 141.167,219.833 143.833,219.167 146.5,218.5C 149.195,218.067 151.362,216.734 153,214.5C 159.287,205.878 165.953,197.545 173,189.5C 176.209,183.886 177.209,177.886 176,171.5C 174.833,169 173,167.167 170.5,166C 153.794,163.685 142.794,170.518 137.5,186.5C 136.662,186.158 136.328,185.492 136.5,184.5C 137.739,181.411 139.239,178.411 141,175.5C 144.088,172.919 146.588,169.919 148.5,166.5C 149.167,166.5 149.833,166.5 150.5,166.5C 154.844,164.202 159.51,163.036 164.5,163C 174.949,157.551 183.115,149.718 189,139.5C 193.188,134.665 198.022,130.665 203.5,127.5C 199.284,126.127 194.95,125.46 190.5,125.5C 173.551,124.491 162.218,131.824 156.5,147.5C 155.662,147.158 155.328,146.492 155.5,145.5C 160.733,131.116 171.067,123.949 186.5,124C 189.887,120.947 193.553,118.28 197.5,116C 203.428,114.035 209.094,111.535 214.5,108.5 Z"/></g>
<g><path style="opacity:1" fill="#333333" d="M 234.5,163.5 C 234.842,164.338 235.508,164.672 236.5,164.5C 241.347,174.678 249.347,180.678 260.5,182.5C 261.234,183.708 261.567,185.041 261.5,186.5C 254.508,182.002 246.842,180.169 238.5,181C 237.845,182.487 236.845,183.653 235.5,184.5C 234.276,183.234 232.943,182.067 231.5,181C 223.486,180.177 216.153,182.011 209.5,186.5C 209.433,185.041 209.766,183.708 210.5,182.5C 222.033,180.634 230.033,174.301 234.5,163.5 Z"/></g>
<g><path style="opacity:1" fill="#f0f0f0" d="M 234.5,166.5 C 237.917,170.096 241.25,173.929 244.5,178C 240.953,177.914 237.953,179.08 235.5,181.5C 232.932,179.283 229.932,178.116 226.5,178C 229.803,174.545 232.469,170.711 234.5,166.5 Z"/></g>
<g><path style="opacity:1" fill="#f8f8f8" d="M 209.5,209.5 C 205.043,220.98 204.376,232.813 207.5,245C 207.129,250.54 205.629,255.707 203,260.5C 199.653,265.258 195.153,267.425 189.5,267C 188.663,265.989 188.33,264.822 188.5,263.5C 189.791,255.993 190.958,248.326 192,240.5C 193.087,232.875 192.087,225.542 189,218.5C 186.269,212.983 183.435,207.649 180.5,202.5C 176.846,192.31 176.513,181.977 179.5,171.5C 188.963,181.162 198.796,190.495 209,199.5C 209.498,202.817 209.665,206.15 209.5,209.5 Z"/></g>
<g><path style="opacity:1" fill="#f8f8f8" d="M 287.5,208.5 C 283.613,214.28 280.78,220.613 279,227.5C 279.434,240.515 280.268,253.515 281.5,266.5C 280.5,266.5 279.5,266.5 278.5,266.5C 276.345,266.628 274.345,266.128 272.5,265C 270.963,263.293 269.296,261.793 267.5,260.5C 265.684,256.716 264.684,252.716 264.5,248.5C 264.5,244.833 264.5,241.167 264.5,237.5C 266.172,229.221 265.505,221.221 262.5,213.5C 261.393,208.919 261.227,204.252 262,199.5C 272.371,189.96 282.537,180.294 292.5,170.5C 293.261,175.829 293.928,181.162 294.5,186.5C 292.96,194.119 290.627,201.452 287.5,208.5 Z"/></g>
<g><path style="opacity:1" fill="#dcdcdc" d="M 705.5,171.5 C 706.496,171.414 707.329,171.748 708,172.5C 708.748,174.332 709.748,175.999 711,177.5C 711.251,179.433 711.751,181.266 712.5,183C 713.845,186.763 716.012,190.596 719,194.5C 720.258,198.666 721.758,202.666 723.5,206.5C 718.428,203.693 715.928,199.36 716,193.5C 711.632,186.552 708.132,179.218 705.5,171.5 Z"/></g>
<g><path style="opacity:1" fill="#f7f7f7" d="M 261.5,186.5 C 261.5,188.5 261.5,190.5 261.5,192.5C 260.776,201.455 260.109,210.455 259.5,219.5C 258.506,228.986 258.173,238.652 258.5,248.5C 258.551,267.531 251.884,283.698 238.5,297C 236.5,297.667 234.5,297.667 232.5,297C 223.971,288.45 218.138,278.283 215,266.5C 213.357,248.024 211.857,229.691 210.5,211.5C 211.105,206.412 211.105,201.412 210.5,196.5C 209.676,193.236 209.342,189.902 209.5,186.5C 216.153,182.011 223.486,180.177 231.5,181C 232.943,182.067 234.276,183.234 235.5,184.5C 236.845,183.653 237.845,182.487 238.5,181C 246.842,180.169 254.508,182.002 261.5,186.5 Z"/></g>
<g><path style="opacity:1" fill="#717171" d="M 260.5,182.5 C 263.167,182.5 265.833,182.5 268.5,182.5C 267.167,183.167 265.833,183.833 264.5,184.5C 263.624,184.369 262.957,184.702 262.5,185.5C 263.917,188.092 264.917,190.759 265.5,193.5C 264.86,195.332 263.86,195.665 262.5,194.5C 263.52,192.568 263.687,190.568 263,188.5C 262.79,190.058 262.29,191.391 261.5,192.5C 261.5,190.5 261.5,188.5 261.5,186.5C 261.567,185.041 261.234,183.708 260.5,182.5 Z"/></g>
<g><path style="opacity:1" fill="#525252" d="M 195.5,181.5 C 200.453,182.329 205.453,182.663 210.5,182.5C 209.766,183.708 209.433,185.041 209.5,186.5C 209.342,189.902 209.676,193.236 210.5,196.5C 209.005,196.011 207.671,195.345 206.5,194.5C 207.244,191.64 207.911,188.64 208.5,185.5C 204.351,184.191 200.351,184.191 196.5,185.5C 193.478,184.292 193.145,182.958 195.5,181.5 Z"/></g>
<g><path style="opacity:1" fill="#e4e4e4" d="M 196.5,185.5 C 200.351,184.191 204.351,184.191 208.5,185.5C 207.911,188.64 207.244,191.64 206.5,194.5C 203.167,191.5 199.833,188.5 196.5,185.5 Z"/></g>
<g><path style="opacity:1" fill="#eaeaea" d="M 265.5,193.5 C 264.917,190.759 263.917,188.092 262.5,185.5C 262.957,184.702 263.624,184.369 264.5,184.5C 268.348,184.311 272.015,184.311 275.5,184.5C 272.147,187.522 268.813,190.522 265.5,193.5 Z"/></g>
<g><path style="opacity:1" fill="#323232" d="M 577.5,114.5 C 577.5,115.167 577.833,115.5 578.5,115.5C 573.282,117.442 568.282,119.942 563.5,123C 565.717,124.275 568.051,125.275 570.5,126C 573.955,130.81 578.455,133.976 584,135.5C 591.111,133.049 598.445,132.049 606,132.5C 615.63,132.566 625.13,133.4 634.5,135C 637.826,132.045 641.159,129.045 644.5,126C 646.407,124.878 648.407,124.045 650.5,123.5C 650.842,124.338 651.508,124.672 652.5,124.5C 648.569,125.554 645.069,127.554 642,130.5C 641.333,131.5 641.333,132.5 642,133.5C 650.693,141.76 660.193,148.927 670.5,155C 677.769,156.64 685.102,157.807 692.5,158.5C 690.875,145.891 684.541,136.557 673.5,130.5C 673.5,129.833 673.833,129.5 674.5,129.5C 680.417,132.749 685.417,137.082 689.5,142.5C 692.559,148.055 694.392,154.055 695,160.5C 696.371,162.041 697.871,163.375 699.5,164.5C 701.529,166.858 703.529,169.192 705.5,171.5C 708.132,179.218 711.632,186.552 716,193.5C 715.928,199.36 718.428,203.693 723.5,206.5C 728.58,212.238 733.246,218.238 737.5,224.5C 744.74,237.717 749.906,251.717 753,266.5C 754.139,270.112 755.806,273.446 758,276.5C 758.333,280.5 758.667,284.5 759,288.5C 761.642,294.425 763.475,300.591 764.5,307C 763.39,312.607 761.89,318.107 760,323.5C 756.937,326.076 753.771,328.409 750.5,330.5C 749.916,328.257 748.75,326.257 747,324.5C 746.51,323.207 746.343,321.873 746.5,320.5C 748.478,319.683 749.478,318.183 749.5,316C 749.037,312.46 748.37,308.96 747.5,305.5C 746.445,308.178 745.112,310.678 743.5,313C 741.866,313.494 740.199,313.66 738.5,313.5C 737.81,305.902 737.977,298.235 739,290.5C 741.846,287.081 742.18,283.414 740,279.5C 733.163,268.654 724.829,258.987 715,250.5C 703.202,229.877 689.702,210.543 674.5,192.5C 673.602,190.095 672.102,188.095 670,186.5C 667.803,192.091 665.803,197.758 664,203.5C 660.8,208.186 658.3,213.186 656.5,218.5C 655.596,217.791 655.263,216.791 655.5,215.5C 660.738,206.351 664.905,196.684 668,186.5C 669.163,176.52 669.996,166.52 670.5,156.5C 668.217,156.392 666.217,155.559 664.5,154C 656.023,147.691 647.69,141.191 639.5,134.5C 638.522,134.977 637.689,135.643 637,136.5C 633.074,144.687 628.907,152.687 624.5,160.5C 624.5,159.833 624.5,159.167 624.5,158.5C 627.502,150.996 631.169,143.829 635.5,137C 616.853,133.69 598.187,133.69 579.5,137C 589.817,154.47 597.817,172.97 603.5,192.5C 603.5,193.167 603.167,193.5 602.5,193.5C 602.44,192.957 602.107,192.624 601.5,192.5C 600.614,193.325 600.281,194.325 600.5,195.5C 599.833,191.833 599.167,188.167 598.5,184.5C 593.367,167.264 586.2,150.931 577,135.5C 575.951,134.483 574.784,134.316 573.5,135C 572.295,136.376 570.962,137.542 569.5,138.5C 569.5,138.167 569.5,137.833 569.5,137.5C 570.458,136.038 571.624,134.705 573,133.5C 573.667,132.5 573.667,131.5 573,130.5C 562.758,122.883 552.258,122.716 541.5,130C 530.196,136.411 524.196,145.911 523.5,158.5C 529.846,157.573 536.18,156.573 542.5,155.5C 543.492,155.328 544.158,155.662 544.5,156.5C 543.925,174.789 547.592,192.123 555.5,208.5C 554.833,208.5 554.5,208.833 554.5,209.5C 551.341,204.851 549.008,199.851 547.5,194.5C 547.244,192.063 546.577,189.729 545.5,187.5C 527.611,207.004 511.777,228.671 498,252.5C 489.55,259.944 482.217,268.277 476,277.5C 472.757,281.904 472.757,286.238 476,290.5C 476.795,297.832 477.129,305.166 477,312.5C 475.274,313.576 473.441,313.743 471.5,313C 469.513,310.86 468.18,308.36 467.5,305.5C 464.965,311.317 465.298,316.817 468.5,322C 467.316,324.51 466.149,327.01 465,329.5C 464.329,330.252 463.496,330.586 462.5,330.5C 459.363,327.835 456.529,324.835 454,321.5C 452.084,316.336 450.917,311.003 450.5,305.5C 451.412,300.338 452.912,295.338 455,290.5C 455.333,286.167 455.667,281.833 456,277.5C 459.594,272.312 462.094,266.646 463.5,260.5C 464.338,260.842 464.672,261.508 464.5,262.5C 463.637,265.923 462.47,269.256 461,272.5C 460.445,281.248 464.278,283.748 472.5,280C 475.333,275.833 478.167,271.667 481,267.5C 491.967,257.874 500.633,246.541 507,233.5C 510.5,228.5 514,223.5 517.5,218.5C 517.376,217.893 517.043,217.56 516.5,217.5C 515.833,217.5 515.5,217.167 515.5,216.5C 518.567,214.879 521.401,212.879 524,210.5C 531.443,201.723 538.109,192.39 544,182.5C 543.836,174.165 543.336,165.831 542.5,157.5C 537.188,158.109 531.854,158.609 526.5,159C 517.38,164.276 511.047,171.776 507.5,181.5C 506.596,180.791 506.263,179.791 506.5,178.5C 508.598,171.991 512.431,166.658 518,162.5C 522.571,138.959 536.738,125.459 560.5,122C 565.953,118.938 571.62,116.438 577.5,114.5 Z"/></g>
<g><path style="opacity:1" fill="#444444" d="M 624.5,158.5 C 624.5,159.167 624.5,159.833 624.5,160.5C 621.759,168.558 618.926,176.558 616,184.5C 615.274,194.244 616.774,203.577 620.5,212.5C 619.833,212.5 619.5,212.833 619.5,213.5C 616.323,206.953 614.323,199.953 613.5,192.5C 610.127,198.611 606.46,198.944 602.5,193.5C 603.167,193.5 603.5,193.167 603.5,192.5C 604.928,195.4 607.094,196.067 610,194.5C 614.535,182.336 619.369,170.336 624.5,158.5 Z"/></g>
<g><path style="opacity:1" fill="#f9f9f9" d="M 672.5,157.5 C 684.799,156.233 694.632,160.566 702,170.5C 705.452,178.737 709.452,186.737 714,194.5C 715.237,198.06 715.737,201.727 715.5,205.5C 712.183,204.779 708.849,204.612 705.5,205C 703.954,208.65 703.287,212.484 703.5,216.5C 700.206,216.741 697.206,215.908 694.5,214C 684.045,203.564 675.712,191.731 669.5,178.5C 671.876,171.701 672.876,164.701 672.5,157.5 Z"/></g>
<g><path style="opacity:1" fill="#525252" d="M 569.5,137.5 C 569.5,137.833 569.5,138.167 569.5,138.5C 563.356,143.803 557.022,148.969 550.5,154C 548.593,155.122 546.593,155.955 544.5,156.5C 544.158,155.662 543.492,155.328 542.5,155.5C 545.408,154.046 548.408,152.546 551.5,151C 557.377,146.283 563.377,141.783 569.5,137.5 Z"/></g>
<g><path style="opacity:1" fill="#fbfbfb" d="M 655.5,215.5 C 653.941,218.868 653.108,222.535 653,226.5C 652.833,231.167 652.667,235.833 652.5,240.5C 652.839,251.994 654.006,263.328 656,274.5C 653.584,271.577 650.75,269.243 647.5,267.5C 644.173,265.17 640.507,263.337 636.5,262C 632.979,258.611 631.313,254.444 631.5,249.5C 632.296,244.843 632.463,240.176 632,235.5C 628.681,227.528 624.847,219.861 620.5,212.5C 616.774,203.577 615.274,194.244 616,184.5C 618.926,176.558 621.759,168.558 624.5,160.5C 628.907,152.687 633.074,144.687 637,136.5C 637.689,135.643 638.522,134.977 639.5,134.5C 647.69,141.191 656.023,147.691 664.5,154C 666.217,155.559 668.217,156.392 670.5,156.5C 669.996,166.52 669.163,176.52 668,186.5C 664.905,196.684 660.738,206.351 655.5,215.5 Z"/></g>
<g><path style="opacity:1" fill="#fbfbfb" d="M 598.5,184.5 C 598.664,191.202 598.331,197.869 597.5,204.5C 593.24,214.354 588.407,224.02 583,233.5C 582.39,238.851 582.557,244.184 583.5,249.5C 583.182,252.956 582.348,256.289 581,259.5C 572.487,262.757 565.154,267.757 559,274.5C 559.618,265.501 560.618,256.501 562,247.5C 563.096,237.025 562.429,226.692 560,216.5C 558.763,213.552 557.263,210.885 555.5,208.5C 547.592,192.123 543.925,174.789 544.5,156.5C 546.593,155.955 548.593,155.122 550.5,154C 557.022,148.969 563.356,143.803 569.5,138.5C 570.962,137.542 572.295,136.376 573.5,135C 574.784,134.316 575.951,134.483 577,135.5C 586.2,150.931 593.367,167.264 598.5,184.5 Z"/></g>
<g><path style="opacity:1" fill="#f9f9f9" d="M 624.5,158.5 C 619.369,170.336 614.535,182.336 610,194.5C 607.094,196.067 604.928,195.4 603.5,192.5C 597.817,172.97 589.817,154.47 579.5,137C 598.187,133.69 616.853,133.69 635.5,137C 631.169,143.829 627.502,150.996 624.5,158.5 Z"/></g>
<g><path style="opacity:1" fill="#f7f7f7" d="M 569.5,137.5 C 563.377,141.783 557.377,146.283 551.5,151C 548.408,152.546 545.408,154.046 542.5,155.5C 536.18,156.573 529.846,157.573 523.5,158.5C 524.196,145.911 530.196,136.411 541.5,130C 552.258,122.716 562.758,122.883 573,130.5C 573.667,131.5 573.667,132.5 573,133.5C 571.624,134.705 570.458,136.038 569.5,137.5 Z"/></g>
<g><path style="opacity:1" fill="#262626" d="M 251.5,200.5 C 246.766,198.855 241.766,198.189 236.5,198.5C 235.833,198.5 235.167,198.5 234.5,198.5C 229.25,198.302 224.25,198.969 219.5,200.5C 217.956,200.703 216.622,201.37 215.5,202.5C 214.406,201.132 214.74,199.965 216.5,199C 222.103,197.876 227.769,197.21 233.5,197C 234.125,194.2 234.792,191.366 235.5,188.5C 236.208,191.366 236.875,194.2 237.5,197C 242.197,197.28 246.863,197.78 251.5,198.5C 257.968,200.93 257.968,201.597 251.5,200.5 Z"/></g>
<g><path style="opacity:1" fill="#f9f9f9" d="M 602.5,193.5 C 606.46,198.944 610.127,198.611 613.5,192.5C 614.323,199.953 616.323,206.953 619.5,213.5C 622.987,220.473 626.487,227.473 630,234.5C 630.59,239.517 630.423,244.517 629.5,249.5C 629.65,253.271 630.65,256.771 632.5,260C 628.5,260.333 624.5,260.667 620.5,261C 617.279,262.104 614.612,263.937 612.5,266.5C 610.494,268.519 608.828,270.852 607.5,273.5C 606.575,272.643 605.908,271.643 605.5,270.5C 600.176,262.318 592.509,258.818 582.5,260C 583.126,259.25 583.626,258.416 584,257.5C 584.333,249.5 584.667,241.5 585,233.5C 589.435,225.631 593.601,217.631 597.5,209.5C 598.222,209.082 598.722,208.416 599,207.5C 599.501,203.49 600.001,199.49 600.5,195.5C 600.281,194.325 600.614,193.325 601.5,192.5C 602.107,192.624 602.44,192.957 602.5,193.5 Z"/></g>
<g><path style="opacity:1" fill="#727272" d="M 598.5,184.5 C 599.167,188.167 599.833,191.833 600.5,195.5C 600.001,199.49 599.501,203.49 599,207.5C 598.722,208.416 598.222,209.082 597.5,209.5C 598.096,207.602 598.096,205.935 597.5,204.5C 598.331,197.869 598.664,191.202 598.5,184.5 Z"/></g>
<g><path style="opacity:1" fill="#a1a1a1" d="M 234.5,198.5 C 233.5,199.167 232.5,199.833 231.5,200.5C 227.766,200.323 224.099,200.656 220.5,201.5C 220.5,200.833 220.167,200.5 219.5,200.5C 224.25,198.969 229.25,198.302 234.5,198.5 Z"/></g>
<g><path style="opacity:1" fill="#e4e4e4" d="M 234.5,198.5 C 235.167,198.5 235.833,198.5 236.5,198.5C 237.5,199.167 238.5,199.833 239.5,200.5C 238.244,200.904 237.077,201.571 236,202.5C 234.415,201.956 232.915,201.289 231.5,200.5C 232.5,199.833 233.5,199.167 234.5,198.5 Z"/></g>
<g><path style="opacity:1" fill="#a5a5a5" d="M 236.5,198.5 C 241.766,198.189 246.766,198.855 251.5,200.5C 250.833,200.5 250.5,200.833 250.5,201.5C 246.881,200.756 243.215,200.423 239.5,200.5C 238.5,199.833 237.5,199.167 236.5,198.5 Z"/></g>
<g><path style="opacity:1" fill="#424242" d="M 231.5,200.5 C 232.915,201.289 234.415,201.956 236,202.5C 237.077,201.571 238.244,200.904 239.5,200.5C 243.215,200.423 246.881,200.756 250.5,201.5C 251.773,202.077 251.773,202.743 250.5,203.5C 246.892,202.407 243.225,202.24 239.5,203C 237.396,203.791 236.063,205.291 235.5,207.5C 234.772,205.807 233.772,204.307 232.5,203C 228.312,202.824 224.312,202.324 220.5,201.5C 224.099,200.656 227.766,200.323 231.5,200.5 Z"/></g>
<g><path style="opacity:1" fill="#9b9b9b" d="M 499.5,200.5 C 499.5,201.833 499.5,203.167 499.5,204.5C 500.5,204.5 501.5,204.5 502.5,204.5C 501.432,205.434 500.099,205.768 498.5,205.5C 498.216,203.585 498.549,201.919 499.5,200.5 Z"/></g>
<g><path style="opacity:1" fill="#444444" d="M 506.5,178.5 C 506.263,179.791 506.596,180.791 507.5,181.5C 505.96,185.865 503.793,189.865 501,193.5C 500.338,195.813 499.838,198.146 499.5,200.5C 498.549,201.919 498.216,203.585 498.5,205.5C 500.099,205.768 501.432,205.434 502.5,204.5C 505.119,204.232 507.619,204.565 510,205.5C 511.237,209.06 511.737,212.727 511.5,216.5C 512.833,216.5 514.167,216.5 515.5,216.5C 515.5,217.167 515.833,217.5 516.5,217.5C 514.183,218.942 512.016,218.608 510,216.5C 509.744,213.443 509.244,210.443 508.5,207.5C 503.652,207.748 498.985,207.248 494.5,206C 479.335,222.167 469.335,241.001 464.5,262.5C 464.672,261.508 464.338,260.842 463.5,260.5C 468.954,237.556 480.121,217.889 497,201.5C 497.422,197.991 498.422,194.657 500,191.5C 502.74,187.353 504.907,183.02 506.5,178.5 Z"/></g>
<g><path style="opacity:1" fill="#e0e0e0" d="M 547.5,194.5 C 538.96,206.554 529.793,218.221 520,229.5C 510.34,247.805 498.007,264.139 483,278.5C 481.618,282.093 480.118,285.593 478.5,289C 481.365,298.526 482.699,308.359 482.5,318.5C 481.07,318.421 479.736,318.754 478.5,319.5C 476.291,318.08 474.291,316.413 472.5,314.5C 471.051,316.611 470.051,318.944 469.5,321.5C 472.274,324.699 471.774,327.366 468,329.5C 467.667,328.833 467.333,328.167 467,327.5C 466.667,329.167 466.333,330.833 466,332.5C 464.698,331.915 463.531,331.249 462.5,330.5C 463.496,330.586 464.329,330.252 465,329.5C 466.149,327.01 467.316,324.51 468.5,322C 465.298,316.817 464.965,311.317 467.5,305.5C 468.18,308.36 469.513,310.86 471.5,313C 473.441,313.743 475.274,313.576 477,312.5C 477.129,305.166 476.795,297.832 476,290.5C 472.757,286.238 472.757,281.904 476,277.5C 482.217,268.277 489.55,259.944 498,252.5C 511.777,228.671 527.611,207.004 545.5,187.5C 546.577,189.729 547.244,192.063 547.5,194.5 Z"/></g>
<g><path style="opacity:1" fill="#f9f9f9" d="M 129.5,203.5 C 130.167,206.833 130.833,210.167 131.5,213.5C 132.855,216.855 135.189,219.189 138.5,220.5C 141.167,221.167 143.833,221.833 146.5,222.5C 141.768,232.3 136.268,241.633 130,250.5C 120.609,259.061 111.443,267.728 102.5,276.5C 95.1915,276.334 92.6915,272.667 95,265.5C 100.853,252.283 106.52,238.949 112,225.5C 117.12,217.59 122.953,210.256 129.5,203.5 Z"/></g>
<g><path style="opacity:1" fill="#f9f9f9" d="M 516.5,217.5 C 517.043,217.56 517.376,217.893 517.5,218.5C 514,223.5 510.5,228.5 507,233.5C 500.633,246.541 491.967,257.874 481,267.5C 478.167,271.667 475.333,275.833 472.5,280C 464.278,283.748 460.445,281.248 461,272.5C 462.47,269.256 463.637,265.923 464.5,262.5C 469.335,241.001 479.335,222.167 494.5,206C 498.985,207.248 503.652,207.748 508.5,207.5C 509.244,210.443 509.744,213.443 510,216.5C 512.016,218.608 514.183,218.942 516.5,217.5 Z"/></g>
<g><path style="opacity:1" fill="#f9f9f9" d="M 717.5,205.5 C 725.912,211.082 732.412,218.415 737,227.5C 744.318,242.953 750.151,258.953 754.5,275.5C 752.842,280.997 749.175,282.83 743.5,281C 735.46,269.287 726.293,258.453 716,248.5C 710.709,238.077 704.542,228.244 697.5,219C 700.334,218.955 702.834,218.121 705,216.5C 705.212,213.242 705.712,210.076 706.5,207C 708.866,206.438 711.199,206.604 713.5,207.5C 715.171,207.332 716.504,206.665 717.5,205.5 Z"/></g>
<g><path style="opacity:1" fill="#494949" d="M 287.5,208.5 C 287.833,208.5 288.167,208.5 288.5,208.5C 286.013,214.812 283.513,221.145 281,227.5C 281.235,238.856 282.068,250.189 283.5,261.5C 282.539,263.265 282.205,265.265 282.5,267.5C 280.901,267.768 279.568,267.434 278.5,266.5C 279.5,266.5 280.5,266.5 281.5,266.5C 280.268,253.515 279.434,240.515 279,227.5C 280.78,220.613 283.613,214.28 287.5,208.5 Z"/></g>
<g><path style="opacity:1" fill="#636363" d="M 133.5,199.5 C 133.096,205.29 133.596,210.956 135,216.5C 135.5,217 136,217.5 136.5,218C 139.817,218.498 143.15,218.665 146.5,218.5C 143.833,219.167 141.167,219.833 138.5,220.5C 135.189,219.189 132.855,216.855 131.5,213.5C 132.167,208.833 132.833,204.167 133.5,199.5 Z"/></g>
<g><path style="opacity:1" fill="#9f9f9f" d="M 138.5,220.5 C 141.85,220.335 145.183,220.502 148.5,221C 147.956,221.717 147.289,222.217 146.5,222.5C 143.833,221.833 141.167,221.167 138.5,220.5 Z"/></g>
<g><path style="opacity:1" fill="#363636" d="M 254.5,223.5 C 247.86,223.992 241.526,222.992 235.5,220.5C 229.349,222.522 223.016,223.522 216.5,223.5C 221.937,222.034 227.604,220.534 233.5,219C 234.12,216.527 234.786,214.027 235.5,211.5C 235.998,214.593 236.998,217.426 238.5,220C 244.16,220.729 249.494,221.896 254.5,223.5 Z"/></g>
<g><path style="opacity:1" fill="#cacaca" d="M 254.5,223.5 C 253.074,224.341 251.74,225.341 250.5,226.5C 248.777,225.2 246.61,224.533 244,224.5C 238.333,225.833 232.667,225.833 227,224.5C 224.39,224.533 222.223,225.2 220.5,226.5C 219.26,225.341 217.926,224.341 216.5,223.5C 223.016,223.522 229.349,222.522 235.5,220.5C 241.526,222.992 247.86,223.992 254.5,223.5 Z"/></g>
<g><path style="opacity:1" fill="#323232" d="M 250.5,226.5 C 246.154,226.334 241.821,226.501 237.5,227C 235.772,233.048 234.772,232.882 234.5,226.5C 229.833,226.5 225.167,226.5 220.5,226.5C 222.223,225.2 224.39,224.533 227,224.5C 232.667,225.833 238.333,225.833 244,224.5C 246.61,224.533 248.777,225.2 250.5,226.5 Z"/></g>
<g><path style="opacity:1" fill="#333333" d="M 294.5,167.5 C 295.492,167.328 296.158,167.662 296.5,168.5C 293.68,175.656 294.18,182.656 298,189.5C 305.878,198.376 313.378,207.543 320.5,217C 322.87,218.036 325.37,218.536 328,218.5C 333.087,219.294 336.42,217.294 338,212.5C 339.041,194.941 333.208,180.274 320.5,168.5C 320.842,167.662 321.508,167.328 322.5,167.5C 323.5,169.167 324.833,170.5 326.5,171.5C 329.147,174.117 331.314,177.117 333,180.5C 335.61,187.664 338.61,194.664 342,201.5C 352.457,211.106 360.291,222.44 365.5,235.5C 374.091,256.102 382.591,276.769 391,297.5C 393.284,306.705 392.784,315.705 389.5,324.5C 388.311,325.429 386.978,325.762 385.5,325.5C 384.207,323.704 382.707,322.037 381,320.5C 380.667,316.167 380.333,311.833 380,307.5C 379.283,306.956 378.783,306.289 378.5,305.5C 378.988,302.289 378.321,299.456 376.5,297C 377.094,296.536 377.761,296.369 378.5,296.5C 381.104,300.645 383.604,304.978 386,309.5C 386.564,314.194 386.397,318.86 385.5,323.5C 386.5,323.5 387.5,323.5 388.5,323.5C 390.861,314.943 391.028,306.277 389,297.5C 385.758,289.353 382.258,281.353 378.5,273.5C 374.925,276.339 371.091,278.673 367,280.5C 366.088,284.452 366.755,288.119 369,291.5C 369.901,296.871 370.734,302.204 371.5,307.5C 372.5,308.167 373.5,308.833 374.5,309.5C 372.856,309.714 371.356,309.38 370,308.5C 369.005,303.547 368.338,298.547 368,293.5C 364.625,289.085 363.792,284.252 365.5,279C 365.375,277.373 364.875,275.873 364,274.5C 355.226,266.415 346.559,258.081 338,249.5C 328.334,230.347 316.168,213.014 301.5,197.5C 299.43,195.036 297.596,192.369 296,189.5C 294.853,196.473 292.353,202.807 288.5,208.5C 288.167,208.5 287.833,208.5 287.5,208.5C 290.627,201.452 292.96,194.119 294.5,186.5C 293.928,181.162 293.261,175.829 292.5,170.5C 282.537,180.294 272.371,189.96 262,199.5C 261.227,204.252 261.393,208.919 262.5,213.5C 262.5,214.833 262.5,216.167 262.5,217.5C 261.883,217.611 261.383,217.944 261,218.5C 260.5,226.159 260.334,233.826 260.5,241.5C 260.5,241.833 260.5,242.167 260.5,242.5C 259.508,235.018 259.175,227.352 259.5,219.5C 260.109,210.455 260.776,201.455 261.5,192.5C 262.29,191.391 262.79,190.058 263,188.5C 263.687,190.568 263.52,192.568 262.5,194.5C 263.86,195.665 264.86,195.332 265.5,193.5C 268.813,190.522 272.147,187.522 275.5,184.5C 272.015,184.311 268.348,184.311 264.5,184.5C 265.833,183.833 267.167,183.167 268.5,182.5C 273.567,182.311 278.234,180.811 282.5,178C 286.076,173.918 290.076,170.418 294.5,167.5 Z"/></g>
<g><path style="opacity:1" fill="#535353" d="M 262.5,213.5 C 265.505,221.221 266.172,229.221 264.5,237.5C 263.402,231.021 262.735,224.354 262.5,217.5C 262.5,216.167 262.5,214.833 262.5,213.5 Z"/></g>
<g><path style="opacity:1" fill="#949494" d="M 331.5,220.5 C 329.167,221.167 326.833,221.833 324.5,222.5C 322.915,221.998 322.415,220.998 323,219.5C 325.719,220.444 328.552,220.777 331.5,220.5 Z"/></g>
<g><path style="opacity:1" fill="#949494" d="M 341.5,203.5 C 340.833,206.833 340.167,210.167 339.5,213.5C 339.177,209.774 339.511,206.107 340.5,202.5C 341.107,202.624 341.44,202.957 341.5,203.5 Z"/></g>
<g><path style="opacity:1" fill="#f9f9f9" d="M 341.5,203.5 C 348.857,210.529 355.023,218.529 360,227.5C 365.529,240.419 370.862,253.419 376,266.5C 377.484,274.517 374.317,277.517 366.5,275.5C 363.727,271.223 360.393,267.39 356.5,264C 347.288,257.788 339.788,249.955 334,240.5C 331.443,234.128 328.276,228.128 324.5,222.5C 326.833,221.833 329.167,221.167 331.5,220.5C 335.374,219.631 338.041,217.297 339.5,213.5C 340.167,210.167 340.833,206.833 341.5,203.5 Z"/></g>
<g><path style="opacity:1" fill="#484848" d="M 180.5,202.5 C 183.435,207.649 186.269,212.983 189,218.5C 192.087,225.542 193.087,232.875 192,240.5C 190.958,248.326 189.791,255.993 188.5,263.5C 188.672,262.508 188.338,261.842 187.5,261.5C 188.676,250.156 189.509,238.823 190,227.5C 187.31,219.123 183.81,211.123 179.5,203.5C 180.167,203.5 180.5,203.167 180.5,202.5 Z"/></g>
<g><path style="opacity:1" fill="#bababa" d="M 262.5,217.5 C 262.735,224.354 263.402,231.021 264.5,237.5C 264.5,241.167 264.5,244.833 264.5,248.5C 263.681,245.695 263.181,242.695 263,239.5C 262.501,243.152 262.335,246.818 262.5,250.5C 261.833,247.5 261.167,244.5 260.5,241.5C 260.334,233.826 260.5,226.159 261,218.5C 261.383,217.944 261.883,217.611 262.5,217.5 Z"/></g>
<g><path style="opacity:1" fill="#737373" d="M 259.5,219.5 C 259.175,227.352 259.508,235.018 260.5,242.5C 260.81,245.713 260.477,248.713 259.5,251.5C 259.737,250.209 259.404,249.209 258.5,248.5C 258.173,238.652 258.506,228.986 259.5,219.5 Z"/></g>
<g><path style="opacity:1" fill="#dfdfdf" d="M 177.5,198.5 C 169.531,207.643 161.698,216.976 154,226.5C 149.505,233.486 145.671,240.819 142.5,248.5C 140.144,251.022 137.977,253.688 136,256.5C 128.345,264.818 120.012,272.485 111,279.5C 111.093,283.826 111.093,288.159 111,292.5C 109.969,293.7 109.135,295.034 108.5,296.5C 107.667,301.83 106.834,307.163 106,312.5C 104.286,313.925 102.953,313.592 102,311.5C 101.576,315.19 100.742,315.357 99.5,312C 99.8333,311.667 100.167,311.333 100.5,311C 99.0563,310.219 97.723,310.386 96.5,311.5C 95.7213,316.113 95.2213,320.78 95,325.5C 94.2904,326.973 93.1238,327.64 91.5,327.5C 91.5,328.5 91.5,329.5 91.5,330.5C 90.1266,330.657 88.7932,330.49 87.5,330C 86.1982,327.978 84.5315,326.478 82.5,325.5C 85.2853,325.067 87.6187,323.734 89.5,321.5C 90.2787,316.887 90.7787,312.22 91,307.5C 91.9147,306.672 92.5814,305.672 93,304.5C 93.2233,306.881 94.39,308.547 96.5,309.5C 98.1439,309.714 99.6439,309.38 101,308.5C 102.061,303.896 102.727,299.229 103,294.5C 104.459,291.253 105.626,287.92 106.5,284.5C 104.945,279.718 105.778,275.385 109,271.5C 117.6,264.904 125.6,257.57 133,249.5C 138.919,239.998 144.586,230.331 150,220.5C 158.333,210.167 166.667,199.833 175,189.5C 176.396,192.298 177.23,195.298 177.5,198.5 Z"/></g>
<g><path style="opacity:1" fill="#242424" d="M 234.5,236.5 C 236.154,238.56 237.154,241.06 237.5,244C 243.196,244.17 248.862,244.67 254.5,245.5C 241.833,245.5 229.167,245.5 216.5,245.5C 222.138,244.67 227.804,244.17 233.5,244C 234.435,241.619 234.768,239.119 234.5,236.5 Z"/></g>
<g><path style="opacity:1" fill="#393939" d="M 136.5,184.5 C 136.328,185.492 136.662,186.158 137.5,186.5C 136.013,190.783 134.679,195.116 133.5,199.5C 132.833,204.167 132.167,208.833 131.5,213.5C 131.823,209.774 131.489,206.107 130.5,202.5C 129.893,202.624 129.56,202.957 129.5,203.5C 122.953,210.256 117.12,217.59 112,225.5C 106.52,238.949 100.853,252.283 95,265.5C 92.6915,272.667 95.1915,276.334 102.5,276.5C 102.5,277.167 102.5,277.833 102.5,278.5C 100.801,278.66 99.1341,278.494 97.5,278C 95.9825,276.315 94.3159,274.815 92.5,273.5C 89.8202,280.7 86.6535,287.7 83,294.5C 80.2721,303.852 80.1054,313.186 82.5,322.5C 83.325,323.386 84.325,323.719 85.5,323.5C 84.7053,318.851 84.5386,314.184 85,309.5C 87.0156,305.469 89.0156,301.469 91,297.5C 92.1096,295.963 93.6096,295.297 95.5,295.5C 95.3347,299.182 95.5014,302.848 96,306.5C 97.0113,307.337 98.1779,307.67 99.5,307.5C 98.5,308.167 97.5,308.833 96.5,309.5C 94.39,308.547 93.2233,306.881 93,304.5C 92.5814,305.672 91.9147,306.672 91,307.5C 90.7787,312.22 90.2787,316.887 89.5,321.5C 87.6187,323.734 85.2853,325.067 82.5,325.5C 79.7814,321.332 78.4481,316.665 78.5,311.5C 78.8207,305.755 79.654,300.088 81,294.5C 90.7159,270.732 100.716,247.066 111,223.5C 116.244,215.586 122.244,208.252 129,201.5C 132.258,196.079 134.758,190.413 136.5,184.5 Z"/></g>
<g><path style="opacity:1" fill="#9a9a9a" d="M 129.5,203.5 C 129.56,202.957 129.893,202.624 130.5,202.5C 131.489,206.107 131.823,209.774 131.5,213.5C 130.833,210.167 130.167,206.833 129.5,203.5 Z"/></g>
<g><path style="opacity:1" fill="#f4f4f4" d="M 210.5,240.5 C 209.823,260.474 215.323,278.474 227,294.5C 230.554,299.451 235.054,300.618 240.5,298C 252.972,285.101 259.305,269.601 259.5,251.5C 260.477,248.713 260.81,245.713 260.5,242.5C 260.5,242.167 260.5,241.833 260.5,241.5C 261.167,244.5 261.833,247.5 262.5,250.5C 263.223,254.701 264.89,258.368 267.5,261.5C 269.536,264.535 272.202,266.868 275.5,268.5C 265.081,273.753 257.581,281.753 253,292.5C 251.007,298.807 249.174,305.141 247.5,311.5C 245.441,314.611 243.608,317.944 242,321.5C 240.603,323.07 239.103,324.404 237.5,325.5C 236.167,325.5 234.833,325.5 233.5,325.5C 229.133,321.804 225.967,317.137 224,311.5C 221.569,296.801 215.069,284.301 204.5,274C 201.5,272.167 198.5,270.333 195.5,268.5C 202.212,265.065 206.545,259.732 208.5,252.5C 209.167,248.5 209.833,244.5 210.5,240.5 Z"/></g>
<g><path style="opacity:1" fill="#2b2b2b" d="M 220.5,247.5 C 225.567,247.622 230.567,248.289 235.5,249.5C 240.404,247.509 245.404,247.176 250.5,248.5C 246.158,249.297 241.824,250.13 237.5,251C 236.167,258.333 234.833,258.333 233.5,251C 228.717,250.561 224.383,249.395 220.5,247.5 Z"/></g>
<g><path style="opacity:1" fill="#3c3c3c" d="M 264.5,248.5 C 264.684,252.716 265.684,256.716 267.5,260.5C 267.5,260.833 267.5,261.167 267.5,261.5C 264.89,258.368 263.223,254.701 262.5,250.5C 262.335,246.818 262.501,243.152 263,239.5C 263.181,242.695 263.681,245.695 264.5,248.5 Z"/></g>
<g><path style="opacity:1" fill="#fbfbfb" d="M 604.5,271.5 C 605.09,272.766 605.59,274.099 606,275.5C 606.667,288.833 606.667,302.167 606,315.5C 604.878,317.407 604.045,319.407 603.5,321.5C 601.811,322.931 599.811,323.764 597.5,324C 590.086,324.89 582.753,324.557 575.5,323C 566.343,319.026 561.676,312.026 561.5,302C 562.479,293.103 564.479,284.437 567.5,276C 572.555,263.974 581.555,259.641 594.5,263C 598.638,264.978 601.971,267.811 604.5,271.5 Z"/></g>
<g><path style="opacity:1" fill="#fbfbfb" d="M 612.5,322.5 C 611.347,320.193 610.18,317.86 609,315.5C 608.333,301.833 608.333,288.167 609,274.5C 610.511,272.138 612.011,269.805 613.5,267.5C 616.952,263.197 621.452,261.531 627,262.5C 632.236,262.024 637.069,263.19 641.5,266C 644.653,270.472 647.153,275.306 649,280.5C 651.232,288.029 652.732,295.695 653.5,303.5C 652.946,311.89 648.946,318.057 641.5,322C 631.803,326.177 622.136,326.344 612.5,322.5 Z"/></g>
<g><path style="opacity:1" fill="#454545" d="M 655.5,215.5 C 655.263,216.791 655.596,217.791 656.5,218.5C 654.61,228.749 654.11,239.083 655,249.5C 656.506,261.578 658.34,273.578 660.5,285.5C 659.549,286.919 659.216,288.585 659.5,290.5C 658.778,286.609 657.944,282.609 657,278.5C 654.167,275.667 651.333,272.833 648.5,270C 647.563,269.308 646.897,269.475 646.5,270.5C 645.957,270.44 645.624,270.107 645.5,269.5C 646.243,268.818 646.909,268.151 647.5,267.5C 650.75,269.243 653.584,271.577 656,274.5C 654.006,263.328 652.839,251.994 652.5,240.5C 652.667,235.833 652.833,231.167 653,226.5C 653.108,222.535 653.941,218.868 655.5,215.5 Z"/></g>
<g><path style="opacity:1" fill="#f9f9f9" d="M 266.5,318.5 C 265.187,330.467 263.187,342.467 260.5,354.5C 259.22,361.702 255.887,367.702 250.5,372.5C 249.754,373.736 249.421,375.07 249.5,376.5C 240.416,360.836 237.082,343.836 239.5,325.5C 243.665,322.503 246.332,318.503 247.5,313.5C 250.265,306.712 252.765,299.712 255,292.5C 259.582,280.234 268.082,272.734 280.5,270C 276.764,274.637 273.93,279.804 272,285.5C 269.947,296.486 268.113,307.486 266.5,318.5 Z"/></g>
<g><path style="opacity:1" fill="#fbfbfb" d="M 659.5,290.5 C 665.758,312.384 669.092,334.717 669.5,357.5C 668.97,375.684 666.803,393.684 663,411.5C 661.92,413.996 660.586,416.33 659,418.5C 657.817,419.731 656.651,419.731 655.5,418.5C 647.102,397.903 642.935,398.903 643,421.5C 640.016,427.824 636.35,428.157 632,422.5C 629.573,418.46 627.906,414.126 627,409.5C 624.279,393.282 620.612,377.282 616,361.5C 614.824,353.535 616.491,346.202 621,339.5C 621.333,335.5 621.667,331.5 622,327.5C 630.129,327.005 637.963,325.172 645.5,322C 653.998,315.509 657.164,307.009 655,296.5C 653.087,287.505 650.253,278.838 646.5,270.5C 646.897,269.475 647.563,269.308 648.5,270C 651.333,272.833 654.167,275.667 657,278.5C 657.944,282.609 658.778,286.609 659.5,290.5 Z"/></g>
<g><path style="opacity:1" fill="#fbfbfb" d="M 187.5,270.5 C 189.624,271.031 191.124,272.365 192,274.5C 194.551,278.935 196.551,283.601 198,288.5C 201.478,311.217 205.145,333.884 209,356.5C 211.39,363.619 215.057,369.953 220,375.5C 219.825,386.234 218.659,396.901 216.5,407.5C 216.167,408.833 215.833,410.167 215.5,411.5C 213.744,416.162 211.077,420.329 207.5,424C 204.007,426.136 200.674,425.969 197.5,423.5C 196.307,419.409 194.641,415.575 192.5,412C 189.854,411.503 187.187,411.336 184.5,411.5C 183.542,411.047 182.708,410.381 182,409.5C 177.646,396.188 175.479,382.521 175.5,368.5C 175.5,363.5 175.5,358.5 175.5,353.5C 176.285,342.837 177.118,332.171 178,321.5C 180.607,309.526 183.107,297.526 185.5,285.5C 186.889,280.731 187.556,275.731 187.5,270.5 Z"/></g>
<g><path style="opacity:1" fill="#fbfbfb" d="M 283.5,274.5 C 284.911,286.724 287.411,298.724 291,310.5C 296.06,339.063 296.727,367.73 293,396.5C 292.28,401.806 290.447,406.639 287.5,411C 284.5,411.333 281.5,411.667 278.5,412C 276.67,416.664 274.336,420.998 271.5,425C 268.697,425.755 266.03,425.422 263.5,424C 260.917,420.932 258.584,417.765 256.5,414.5C 252.709,401.759 250.876,388.759 251,375.5C 253.333,372.5 255.667,369.5 258,366.5C 259.759,362.991 260.926,359.325 261.5,355.5C 262.793,354.158 263.626,352.491 264,350.5C 265.104,342.15 266.27,333.817 267.5,325.5C 269.098,313.151 270.931,300.818 273,288.5C 274.779,282.275 277.612,276.609 281.5,271.5C 282.425,272.357 283.092,273.357 283.5,274.5 Z"/></g>
<g><path style="opacity:1" fill="#636363" d="M 187.5,263.5 C 187.5,265.833 187.5,268.167 187.5,270.5C 187.556,275.731 186.889,280.731 185.5,285.5C 185.672,284.508 185.338,283.842 184.5,283.5C 184.85,276.6 185.85,269.934 187.5,263.5 Z"/></g>
<g><path style="opacity:1" fill="#f2f2f2" d="M 102.5,278.5 C 103.972,280.117 104.639,282.117 104.5,284.5C 101.874,291.91 100.207,299.576 99.5,307.5C 98.1779,307.67 97.0113,307.337 96,306.5C 95.5014,302.848 95.3347,299.182 95.5,295.5C 93.6096,295.297 92.1096,295.963 91,297.5C 89.0156,301.469 87.0156,305.469 85,309.5C 84.5386,314.184 84.7053,318.851 85.5,323.5C 84.325,323.719 83.325,323.386 82.5,322.5C 80.1054,313.186 80.2721,303.852 83,294.5C 86.6535,287.7 89.8202,280.7 92.5,273.5C 94.3159,274.815 95.9825,276.315 97.5,278C 99.1341,278.494 100.801,278.66 102.5,278.5 Z"/></g>
<g><path style="opacity:1" fill="#f2f2f2" d="M 378.5,296.5 C 377.791,295.596 376.791,295.263 375.5,295.5C 375.665,298.85 375.498,302.183 375,305.5C 374.29,306.973 373.124,307.64 371.5,307.5C 370.734,302.204 369.901,296.871 369,291.5C 366.755,288.119 366.088,284.452 367,280.5C 371.091,278.673 374.925,276.339 378.5,273.5C 382.258,281.353 385.758,289.353 389,297.5C 391.028,306.277 390.861,314.943 388.5,323.5C 387.5,323.5 386.5,323.5 385.5,323.5C 386.397,318.86 386.564,314.194 386,309.5C 383.604,304.978 381.104,300.645 378.5,296.5 Z"/></g>
<g><path style="opacity:1" fill="#f3f3f3" d="M 755.5,278.5 C 756.117,278.611 756.617,278.944 757,279.5C 757.333,283.5 757.667,287.5 758,291.5C 760.23,296.459 761.73,301.625 762.5,307C 761.996,314.868 758.996,321.535 753.5,327C 752.552,327.483 751.552,327.649 750.5,327.5C 750.69,324.123 752.19,321.456 755,319.5C 757.374,309.932 753.874,304.265 744.5,302.5C 744.752,305.32 744.252,307.986 743,310.5C 741.644,311.38 740.144,311.714 738.5,311.5C 739.827,304.587 740.66,297.587 741,290.5C 742.903,288.559 743.736,286.226 743.5,283.5C 748.726,284.535 752.726,282.868 755.5,278.5 Z"/></g>
<g><path style="opacity:1" fill="#f3f3f3" d="M 457.5,278.5 C 459.886,279.373 461.886,280.873 463.5,283C 466.146,283.497 468.813,283.664 471.5,283.5C 471.264,286.226 472.097,288.559 474,290.5C 474.577,297.5 475.077,304.5 475.5,311.5C 473.61,311.703 472.11,311.037 471,309.5C 471.273,300.124 468.273,299.124 462,306.5C 460.3,309.467 459.133,312.633 458.5,316C 460.391,319.055 462.057,322.222 463.5,325.5C 463.167,326.167 462.833,326.833 462.5,327.5C 460.476,325.642 458.309,323.975 456,322.5C 454.523,317.235 453.356,311.901 452.5,306.5C 453.695,300.748 455.195,295.081 457,289.5C 457.499,285.848 457.665,282.182 457.5,278.5 Z"/></g>
<g><path style="opacity:1" fill="#2f2f2f" d="M 267.5,260.5 C 269.296,261.793 270.963,263.293 272.5,265C 274.345,266.128 276.345,266.628 278.5,266.5C 279.568,267.434 280.901,267.768 282.5,267.5C 282.205,265.265 282.539,263.265 283.5,261.5C 283.401,264.237 283.735,266.904 284.5,269.5C 284.784,271.415 284.451,273.081 283.5,274.5C 283.092,273.357 282.425,272.357 281.5,271.5C 277.612,276.609 274.779,282.275 273,288.5C 270.931,300.818 269.098,313.151 267.5,325.5C 266.532,323.393 266.198,321.059 266.5,318.5C 268.113,307.486 269.947,296.486 272,285.5C 273.93,279.804 276.764,274.637 280.5,270C 268.082,272.734 259.582,280.234 255,292.5C 252.765,299.712 250.265,306.712 247.5,313.5C 247.5,312.833 247.5,312.167 247.5,311.5C 249.174,305.141 251.007,298.807 253,292.5C 257.581,281.753 265.081,273.753 275.5,268.5C 272.202,266.868 269.536,264.535 267.5,261.5C 267.5,261.167 267.5,260.833 267.5,260.5 Z"/></g>
<g><path style="opacity:1" fill="#3d3d3d" d="M 209.5,209.5 C 209.489,211.547 209.156,213.547 208.5,215.5C 208.833,216.167 209.167,216.833 209.5,217.5C 210.466,215.604 210.799,213.604 210.5,211.5C 211.857,229.691 213.357,248.024 215,266.5C 218.138,278.283 223.971,288.45 232.5,297C 234.5,297.667 236.5,297.667 238.5,297C 251.884,283.698 258.551,267.531 258.5,248.5C 259.404,249.209 259.737,250.209 259.5,251.5C 259.305,269.601 252.972,285.101 240.5,298C 235.054,300.618 230.554,299.451 227,294.5C 215.323,278.474 209.823,260.474 210.5,240.5C 210.831,233.137 210.497,225.803 209.5,218.5C 208.719,219.729 208.219,221.062 208,222.5C 207.916,232.494 208.083,242.494 208.5,252.5C 206.545,259.732 202.212,265.065 195.5,268.5C 198.5,270.333 201.5,272.167 204.5,274C 215.069,284.301 221.569,296.801 224,311.5C 225.967,317.137 229.133,321.804 233.5,325.5C 232.833,325.5 232.5,325.833 232.5,326.5C 233.167,331.5 233.833,336.5 234.5,341.5C 232.988,354.911 229.155,367.577 223,379.5C 221.923,389.445 220.089,399.112 217.5,408.5C 217.5,407.833 217.167,407.5 216.5,407.5C 218.659,396.901 219.825,386.234 220,375.5C 215.057,369.953 211.39,363.619 209,356.5C 205.145,333.884 201.478,311.217 198,288.5C 196.551,283.601 194.551,278.935 192,274.5C 191.124,272.365 189.624,271.031 187.5,270.5C 187.5,268.167 187.5,265.833 187.5,263.5C 187.5,262.833 187.5,262.167 187.5,261.5C 188.338,261.842 188.672,262.508 188.5,263.5C 188.33,264.822 188.663,265.989 189.5,267C 195.153,267.425 199.653,265.258 203,260.5C 205.629,255.707 207.129,250.54 207.5,245C 204.376,232.813 205.043,220.98 209.5,209.5 Z"/></g>
<g><path style="opacity:1" fill="#202020" d="M 234.5,260.5 C 235.828,265.288 236.495,270.454 236.5,276C 236.167,281.167 235.833,286.333 235.5,291.5C 234.501,281.188 234.168,270.855 234.5,260.5 Z"/></g>
<g><path style="opacity:1" fill="#f9f9f9" d="M 232.5,326.5 C 233.644,344.114 230.311,360.78 222.5,376.5C 218.414,371.236 214.914,365.57 212,359.5C 207.208,334.583 202.875,309.583 199,284.5C 196.797,279.256 193.964,274.422 190.5,270C 203.686,273.176 212.519,281.343 217,294.5C 219.051,305.326 223.051,315.326 229,324.5C 230.113,325.305 231.279,325.972 232.5,326.5 Z"/></g>
<g><path style="opacity:1" fill="#c2c2c2" d="M 210.5,240.5 C 209.833,244.5 209.167,248.5 208.5,252.5C 208.083,242.494 207.916,232.494 208,222.5C 208.219,221.062 208.719,219.729 209.5,218.5C 210.497,225.803 210.831,233.137 210.5,240.5 Z"/></g>
<g><path style="opacity:1" fill="#e0e0e0" d="M 674.5,192.5 C 671.75,197.793 669.75,203.46 668.5,209.5C 661.458,218.968 658.458,229.634 659.5,241.5C 659.96,254.225 661.127,266.892 663,279.5C 667.661,300.48 671.995,321.48 676,342.5C 677.674,366.392 676.174,390.059 671.5,413.5C 672.821,424.479 673.988,435.479 675,446.5C 682.063,459.918 684.397,474.251 682,489.5C 681.062,502.209 679.729,514.876 678,527.5C 677.291,538.189 677.458,548.856 678.5,559.5C 676.863,557.684 675.363,555.684 674,553.5C 672.738,545.887 672.238,538.22 672.5,530.5C 673.473,528.052 673.806,525.385 673.5,522.5C 673.942,518.846 674.276,515.179 674.5,511.5C 675.972,507.081 676.638,502.414 676.5,497.5C 677.384,485.176 677.551,472.843 677,460.5C 674.326,451.824 671.66,443.157 669,434.5C 668.684,425.284 667.851,416.118 666.5,407C 667.907,396.821 669.407,386.654 671,376.5C 671.827,362.994 671.66,349.66 670.5,336.5C 668.189,319.279 664.856,302.279 660.5,285.5C 658.34,273.578 656.506,261.578 655,249.5C 654.11,239.083 654.61,228.749 656.5,218.5C 658.3,213.186 660.8,208.186 664,203.5C 665.803,197.758 667.803,192.091 670,186.5C 672.102,188.095 673.602,190.095 674.5,192.5 Z"/></g>
<g><path style="opacity:1" fill="#292929" d="M 660.5,285.5 C 664.856,302.279 668.189,319.279 670.5,336.5C 670.825,343.687 670.491,350.687 669.5,357.5C 669.092,334.717 665.758,312.384 659.5,290.5C 659.216,288.585 659.549,286.919 660.5,285.5 Z"/></g>
<g><path style="opacity:1" fill="#141414" d="M 612.5,266.5 C 613.167,266.5 613.5,266.833 613.5,267.5C 612.011,269.805 610.511,272.138 609,274.5C 608.333,288.167 608.333,301.833 609,315.5C 610.18,317.86 611.347,320.193 612.5,322.5C 612.5,323.167 612.167,323.5 611.5,323.5C 611.44,322.957 611.107,322.624 610.5,322.5C 609.511,326.107 609.177,329.774 609.5,333.5C 609.672,334.492 609.338,335.158 608.5,335.5C 608.829,329.463 608.496,323.463 607.5,317.5C 606.506,322.456 606.173,327.456 606.5,332.5C 606.007,328.708 605.007,325.042 603.5,321.5C 604.045,319.407 604.878,317.407 606,315.5C 606.667,302.167 606.667,288.833 606,275.5C 605.59,274.099 605.09,272.766 604.5,271.5C 604.5,270.833 604.833,270.5 605.5,270.5C 605.908,271.643 606.575,272.643 607.5,273.5C 608.828,270.852 610.494,268.519 612.5,266.5 Z"/></g>
<g><path style="opacity:1" fill="#5c5c5c" d="M 378.5,296.5 C 377.761,296.369 377.094,296.536 376.5,297C 378.321,299.456 378.988,302.289 378.5,305.5C 377.167,306.833 375.833,308.167 374.5,309.5C 373.5,308.833 372.5,308.167 371.5,307.5C 373.124,307.64 374.29,306.973 375,305.5C 375.498,302.183 375.665,298.85 375.5,295.5C 376.791,295.263 377.791,295.596 378.5,296.5 Z"/></g>
<g><path style="opacity:1" fill="#e1e1e1" d="M 385.5,325.5 C 386.978,325.762 388.311,325.429 389.5,324.5C 392.784,315.705 393.284,306.705 391,297.5C 382.591,276.769 374.091,256.102 365.5,235.5C 367.129,233.94 368.296,234.273 369,236.5C 377.805,258.58 386.805,280.58 396,302.5C 396.573,307.326 397.073,312.159 397.5,317C 396.901,321.66 395.901,326.16 394.5,330.5C 391.574,329.539 388.574,328.873 385.5,328.5C 385.5,327.5 385.5,326.5 385.5,325.5 Z"/></g>
<g><path style="opacity:1" fill="#dedede" d="M 737.5,224.5 C 739.017,224.511 740.184,225.177 741,226.5C 749.027,240.577 754.693,255.577 758,271.5C 762.822,277.965 764.822,285.298 764,293.5C 766.63,301.311 767.963,309.311 768,317.5C 766.91,324.348 763.744,330.014 758.5,334.5C 757.311,335.429 755.978,335.762 754.5,335.5C 754.592,332.6 753.259,330.933 750.5,330.5C 753.771,328.409 756.937,326.076 760,323.5C 761.89,318.107 763.39,312.607 764.5,307C 763.475,300.591 761.642,294.425 759,288.5C 758.667,284.5 758.333,280.5 758,276.5C 755.806,273.446 754.139,270.112 753,266.5C 749.906,251.717 744.74,237.717 737.5,224.5 Z"/></g>
<g><path style="opacity:1" fill="#373737" d="M 184.5,283.5 C 185.338,283.842 185.672,284.508 185.5,285.5C 183.107,297.526 180.607,309.526 178,321.5C 177.118,332.171 176.285,342.837 175.5,353.5C 174.833,357.5 174.167,361.5 173.5,365.5C 173.342,350.774 174.175,336.108 176,321.5C 178.943,308.842 181.776,296.175 184.5,283.5 Z"/></g>
<g><path style="opacity:1" fill="#dddddd" d="M 379.5,304.5 C 380.077,303.227 380.743,303.227 381.5,304.5C 384.5,309.483 385.167,314.817 383.5,320.5C 382.673,316.541 382.173,312.541 382,308.5C 381.392,306.934 380.558,305.6 379.5,304.5 Z"/></g>
<g><path style="opacity:1" fill="#d8d8d8" d="M 89.5,303.5 C 90.2389,303.369 90.9056,303.536 91.5,304C 90.5399,305.419 89.7065,306.919 89,308.5C 88.8265,312.541 88.3265,316.541 87.5,320.5C 85.9929,314.57 86.6595,308.903 89.5,303.5 Z"/></g>
<g><path style="opacity:1" fill="#e2e2e2" d="M 301.5,197.5 C 300.542,197.953 299.708,198.619 299,199.5C 298.667,201.833 298.333,204.167 298,206.5C 293.743,214.681 289.743,223.014 286,231.5C 286.44,246.774 287.773,262.107 290,277.5C 292.859,293.269 296.192,308.935 300,324.5C 303.292,350.113 303.292,375.78 300,401.5C 299.127,406.983 297.96,412.316 296.5,417.5C 297.096,431.447 299.93,444.781 305,457.5C 305.667,469.833 305.667,482.167 305,494.5C 301.511,514.572 301.011,533.906 303.5,552.5C 301.19,549.898 299.357,546.898 298,543.5C 297.639,538.08 296.806,532.746 295.5,527.5C 296.97,513.797 298.637,500.13 300.5,486.5C 303.447,468.794 301.281,451.794 294,435.5C 293.56,429.088 292.726,422.755 291.5,416.5C 293.648,403.232 295.481,389.898 297,376.5C 297.667,365.167 297.667,353.833 297,342.5C 295.818,335.229 295.151,327.896 295,320.5C 290.716,303.53 287.216,286.53 284.5,269.5C 283.735,266.904 283.401,264.237 283.5,261.5C 282.068,250.189 281.235,238.856 281,227.5C 283.513,221.145 286.013,214.812 288.5,208.5C 292.353,202.807 294.853,196.473 296,189.5C 297.596,192.369 299.43,195.036 301.5,197.5 Z"/></g>
<g><path style="opacity:1" fill="#cecece" d="M 746.5,320.5 C 745.685,319.163 744.518,318.163 743,317.5C 742.517,316.552 742.351,315.552 742.5,314.5C 740.901,314.768 739.568,314.434 738.5,313.5C 740.199,313.66 741.866,313.494 743.5,313C 745.112,310.678 746.445,308.178 747.5,305.5C 748.37,308.96 749.037,312.46 749.5,316C 749.478,318.183 748.478,319.683 746.5,320.5 Z"/></g>
<g><path style="opacity:1" fill="#d6d6d6" d="M 463.5,306.5 C 464.649,306.791 465.316,307.624 465.5,309C 464.597,311.079 463.931,313.246 463.5,315.5C 463.813,317.981 464.813,320.147 466.5,322C 466.167,322.5 465.833,323 465.5,323.5C 463.455,321.241 461.789,318.741 460.5,316C 461.584,312.822 462.584,309.655 463.5,306.5 Z"/></g>
<g><path style="opacity:1" fill="#454545" d="M 247.5,311.5 C 247.5,312.167 247.5,312.833 247.5,313.5C 246.332,318.503 243.665,322.503 239.5,325.5C 237.082,343.836 240.416,360.836 249.5,376.5C 249.158,377.338 248.492,377.672 247.5,377.5C 246.883,377.389 246.383,377.056 246,376.5C 244.256,371.101 242.423,365.768 240.5,360.5C 238.079,353.402 236.746,346.069 236.5,338.5C 237.485,334.366 237.818,330.032 237.5,325.5C 239.103,324.404 240.603,323.07 242,321.5C 243.608,317.944 245.441,314.611 247.5,311.5 Z"/></g>
<g><path style="opacity:1" fill="#d5d5d5" d="M 749.5,306.5 C 750.496,306.414 751.329,306.748 752,307.5C 752.392,310.627 753.225,313.627 754.5,316.5C 752.588,318.657 750.921,320.991 749.5,323.5C 749.167,323 748.833,322.5 748.5,322C 749.953,320.217 750.953,318.217 751.5,316C 749.928,313.081 749.261,309.915 749.5,306.5 Z"/></g>
<g><path style="opacity:1" fill="#f5f5f5" d="M 611.5,323.5 C 613.684,325.585 616.351,326.585 619.5,326.5C 619.666,330.514 619.499,334.514 619,338.5C 617.333,342.5 615.667,346.5 614,350.5C 611.974,345.008 610.807,339.341 610.5,333.5C 610.187,329.958 610.521,326.625 611.5,323.5 Z"/></g>
<g><path style="opacity:1" fill="#080808" d="M 232.5,326.5 C 232.5,325.833 232.833,325.5 233.5,325.5C 234.833,325.5 236.167,325.5 237.5,325.5C 237.818,330.032 237.485,334.366 236.5,338.5C 236.824,334.445 236.491,330.445 235.5,326.5C 234.506,331.456 234.173,336.456 234.5,341.5C 233.833,336.5 233.167,331.5 232.5,326.5 Z"/></g>
<g><path style="opacity:1" fill="#6d6d6d" d="M 611.5,323.5 C 610.521,326.625 610.187,329.958 610.5,333.5C 610.167,333.5 609.833,333.5 609.5,333.5C 609.177,329.774 609.511,326.107 610.5,322.5C 611.107,322.624 611.44,322.957 611.5,323.5 Z"/></g>
<g><path style="opacity:1" fill="#4f4f4f" d="M 266.5,318.5 C 266.198,321.059 266.532,323.393 267.5,325.5C 266.27,333.817 265.104,342.15 264,350.5C 263.626,352.491 262.793,354.158 261.5,355.5C 261.5,354.833 261.167,354.5 260.5,354.5C 263.187,342.467 265.187,330.467 266.5,318.5 Z"/></g>
<g><path style="opacity:1" fill="#e0e0e0" d="M 608.5,335.5 C 609.327,339.439 609.994,343.439 610.5,347.5C 607.092,363.248 602.925,378.914 598,394.5C 596.48,407.336 594.147,420.003 591,432.5C 588.03,436.812 585.03,441.146 582,445.5C 581.252,454.353 582.252,463.019 585,471.5C 587.443,486.657 584.776,500.657 577,513.5C 573.855,524.411 570.855,535.411 568,546.5C 567.667,559.5 567.333,572.5 567,585.5C 564.947,590.306 561.28,592.306 556,591.5C 550.385,592.041 546.218,590.041 543.5,585.5C 547.934,586.794 552.267,586.794 556.5,585.5C 559.5,584.5 561.5,582.5 562.5,579.5C 563.331,566.673 563.831,553.673 564,540.5C 565.11,535.445 566.276,530.445 567.5,525.5C 570.992,512.858 575.158,500.524 580,488.5C 579.582,472.154 578.915,455.821 578,439.5C 581.095,435.411 583.761,431.077 586,426.5C 592.537,395.066 599.371,363.733 606.5,332.5C 606.173,327.456 606.506,322.456 607.5,317.5C 608.496,323.463 608.829,329.463 608.5,335.5 Z"/></g>
<g><path style="opacity:1" fill="#5e5e5e" d="M 175.5,353.5 C 175.5,358.5 175.5,363.5 175.5,368.5C 174.515,372.634 174.182,376.968 174.5,381.5C 173.512,376.36 173.179,371.026 173.5,365.5C 174.167,361.5 174.833,357.5 175.5,353.5 Z"/></g>
<g><path style="opacity:1" fill="#e0e0e0" d="M 236.5,338.5 C 236.746,346.069 238.079,353.402 240.5,360.5C 239.85,360.196 239.183,359.863 238.5,359.5C 236.026,365.318 233.86,371.318 232,377.5C 230.667,379.5 229.333,381.5 228,383.5C 224.555,397.942 222.555,412.609 222,427.5C 219.382,434.735 215.716,441.401 211,447.5C 211.142,460.898 211.808,474.231 213,487.5C 211.366,490.48 209.7,493.48 208,496.5C 206.117,505.042 203.783,513.375 201,521.5C 200.951,532.579 200.118,543.579 198.5,554.5C 199.399,559.15 199.566,563.817 199,568.5C 196.631,570.609 194.131,572.609 191.5,574.5C 190.94,576.854 190.273,579.187 189.5,581.5C 185.381,583.79 181.714,586.624 178.5,590C 173.828,590.168 169.161,589.834 164.5,589C 162.416,588.303 160.749,587.136 159.5,585.5C 163.042,585.38 166.542,585.714 170,586.5C 171.627,586.375 173.127,585.875 174.5,585C 177.701,581.464 181.201,578.297 185,575.5C 185.311,573.444 185.811,571.444 186.5,569.5C 194.508,565.283 196.842,558.783 193.5,550C 195.044,537.919 196.211,525.753 197,513.5C 198.532,502.7 202.198,492.7 208,483.5C 208.819,477.319 208.653,471.319 207.5,465.5C 206.226,457.875 205.726,450.208 206,442.5C 210.207,437.42 213.373,431.754 215.5,425.5C 217.022,419.953 217.688,414.286 217.5,408.5C 220.089,399.112 221.923,389.445 223,379.5C 229.155,367.577 232.988,354.911 234.5,341.5C 234.173,336.456 234.506,331.456 235.5,326.5C 236.491,330.445 236.824,334.445 236.5,338.5 Z"/></g>
<g><path style="opacity:1" fill="#3c3c3c" d="M 284.5,269.5 C 287.216,286.53 290.716,303.53 295,320.5C 295.151,327.896 295.818,335.229 297,342.5C 297.667,353.833 297.667,365.167 297,376.5C 295.481,389.898 293.648,403.232 291.5,416.5C 290.833,415.5 290.167,414.5 289.5,413.5C 289.44,412.957 289.107,412.624 288.5,412.5C 285.557,413.244 282.557,413.744 279.5,414C 277.675,418.652 275.342,422.985 272.5,427C 268.548,427.912 264.881,427.245 261.5,425C 259.601,422.012 257.601,419.179 255.5,416.5C 255.833,415.833 256.167,415.167 256.5,414.5C 258.584,417.765 260.917,420.932 263.5,424C 266.03,425.422 268.697,425.755 271.5,425C 274.336,420.998 276.67,416.664 278.5,412C 281.5,411.667 284.5,411.333 287.5,411C 290.447,406.639 292.28,401.806 293,396.5C 296.727,367.73 296.06,339.063 291,310.5C 287.411,298.724 284.911,286.724 283.5,274.5C 284.451,273.081 284.784,271.415 284.5,269.5 Z"/></g>
<g><path style="opacity:1" fill="#f5f5f5" d="M 547.5,435.5 C 548.461,433.735 548.795,431.735 548.5,429.5C 548.149,423.738 548.649,418.072 550,412.5C 551.709,415.418 553.542,418.252 555.5,421C 556.833,421.667 558.167,421.667 559.5,421C 562.259,416.23 564.925,411.397 567.5,406.5C 568.863,412.458 570.029,418.458 571,424.5C 575.251,429.726 579.585,429.726 584,424.5C 584.167,425 584.333,425.5 584.5,426C 582.464,430.704 579.631,434.871 576,438.5C 575.667,443.5 575.333,448.5 575,453.5C 573.406,451.703 571.406,450.703 569,450.5C 564.949,452.838 560.782,453.005 556.5,451C 553.938,447.935 550.938,445.435 547.5,443.5C 546.795,440.911 546.795,438.244 547.5,435.5 Z"/></g>
<g><path style="opacity:1" fill="#f6f6f6" d="M 189.5,413.5 C 190.496,413.414 191.329,413.748 192,414.5C 193.529,419.06 195.696,423.227 198.5,427C 202.452,427.912 206.119,427.245 209.5,425C 211.364,422.312 213.364,419.812 215.5,417.5C 215.167,419.5 214.833,421.5 214.5,423.5C 212.272,430.446 208.605,436.613 203.5,442C 199.514,444.665 195.181,445.665 190.5,445C 185.94,440.472 182.273,435.472 179.5,430C 180.123,424.097 181.123,418.264 182.5,412.5C 184.747,413.374 187.08,413.708 189.5,413.5 Z"/></g>
<g><path style="opacity:1" fill="#f6f6f6" d="M 289.5,413.5 C 290.165,418.825 290.832,424.159 291.5,429.5C 288.984,434.814 285.65,439.814 281.5,444.5C 274.374,446.402 268.54,444.402 264,438.5C 259.494,431.815 256.66,424.481 255.5,416.5C 257.601,419.179 259.601,422.012 261.5,425C 264.881,427.245 268.548,427.912 272.5,427C 275.342,422.985 277.675,418.652 279.5,414C 282.557,413.744 285.557,413.244 288.5,412.5C 289.107,412.624 289.44,412.957 289.5,413.5 Z"/></g>
<g><path style="opacity:1" fill="#111111" d="M 216.5,407.5 C 217.167,407.5 217.5,407.833 217.5,408.5C 217.688,414.286 217.022,419.953 215.5,425.5C 214.662,425.158 214.328,424.492 214.5,423.5C 214.833,421.5 215.167,419.5 215.5,417.5C 215.5,415.5 215.5,413.5 215.5,411.5C 215.833,410.167 216.167,408.833 216.5,407.5 Z"/></g>
<g><path style="opacity:1" fill="#3e3e3e" d="M 184.5,411.5 C 187.187,411.336 189.854,411.503 192.5,412C 194.641,415.575 196.307,419.409 197.5,423.5C 200.674,425.969 204.007,426.136 207.5,424C 211.077,420.329 213.744,416.162 215.5,411.5C 215.5,413.5 215.5,415.5 215.5,417.5C 213.364,419.812 211.364,422.312 209.5,425C 206.119,427.245 202.452,427.912 198.5,427C 195.696,423.227 193.529,419.06 192,414.5C 191.329,413.748 190.496,413.414 189.5,413.5C 187.833,412.833 186.167,412.167 184.5,411.5 Z"/></g>
<g><path style="opacity:1" fill="#5c5c5c" d="M 547.5,416.5 C 547.182,421.032 547.515,425.366 548.5,429.5C 548.795,431.735 548.461,433.735 547.5,435.5C 547.5,434.833 547.167,434.5 546.5,434.5C 546.177,428.31 546.51,422.31 547.5,416.5 Z"/></g>
<g><path style="opacity:1" fill="#fafafa" d="M 206.5,469.5 C 206.666,473.514 206.499,477.514 206,481.5C 196.308,500.964 191.975,521.631 193,543.5C 191.936,544.944 191.436,546.611 191.5,548.5C 192.399,553.15 192.566,557.817 192,562.5C 189.146,564.598 186.479,566.931 184,569.5C 184.631,574.024 182.797,576.857 178.5,578C 176.595,579.815 174.928,581.815 173.5,584C 168.598,583.262 163.598,582.595 158.5,582C 153.033,578.664 152.199,574.498 156,569.5C 159.632,566.87 162.965,563.87 166,560.5C 169.036,554.427 172.036,548.427 175,542.5C 175.905,537.206 176.405,531.872 176.5,526.5C 175.74,513.423 174.407,500.423 172.5,487.5C 172.333,476.495 172.5,465.495 173,454.5C 173.303,451.001 174.136,447.668 175.5,444.5C 176.423,442.233 177.256,439.9 178,437.5C 178.561,436.978 179.228,436.645 180,436.5C 183.382,440.077 186.882,443.577 190.5,447C 194.734,447.443 198.734,446.609 202.5,444.5C 203.59,452.894 204.923,461.227 206.5,469.5 Z"/></g>
<g><path style="opacity:1" fill="#fafafa" d="M 298.5,458.5 C 298.667,470.838 298.5,483.171 298,495.5C 297.279,501.55 296.279,507.55 295,513.5C 293.975,524.294 294.642,534.961 297,545.5C 300.21,550.586 302.876,555.919 305,561.5C 309.3,564.798 313.3,568.465 317,572.5C 317.628,576.012 316.461,578.845 313.5,581C 307.937,582.7 302.271,583.367 296.5,583C 294.608,579.442 291.775,576.942 288,575.5C 287.667,573.5 287.333,571.5 287,569.5C 284.146,567.402 281.479,565.069 279,562.5C 278.5,557.988 278.667,553.488 279.5,549C 278.165,535.526 276.665,522.026 275,508.5C 272.908,499.72 269.742,491.387 265.5,483.5C 264.793,480.214 264.46,476.881 264.5,473.5C 265.573,463.841 266.573,454.175 267.5,444.5C 274.328,449.118 280.495,448.451 286,442.5C 286.77,438.71 288.937,436.877 292.5,437C 296.023,443.737 298.023,450.904 298.5,458.5 Z"/></g>
<g><path style="opacity:1" fill="#323232" d="M 260.5,354.5 C 261.167,354.5 261.5,354.833 261.5,355.5C 260.926,359.325 259.759,362.991 258,366.5C 255.667,369.5 253.333,372.5 251,375.5C 250.876,388.759 252.709,401.759 256.5,414.5C 256.167,415.167 255.833,415.833 255.5,416.5C 256.66,424.481 259.494,431.815 264,438.5C 268.54,444.402 274.374,446.402 281.5,444.5C 285.65,439.814 288.984,434.814 291.5,429.5C 290.832,424.159 290.165,418.825 289.5,413.5C 290.167,414.5 290.833,415.5 291.5,416.5C 292.726,422.755 293.56,429.088 294,435.5C 301.281,451.794 303.447,468.794 300.5,486.5C 299.833,477.167 299.167,467.833 298.5,458.5C 298.023,450.904 296.023,443.737 292.5,437C 288.937,436.877 286.77,438.71 286,442.5C 280.495,448.451 274.328,449.118 267.5,444.5C 266.833,444.5 266.167,444.5 265.5,444.5C 260.959,438.085 257.459,431.085 255,423.5C 252.947,408.074 250.447,392.741 247.5,377.5C 248.492,377.672 249.158,377.338 249.5,376.5C 249.421,375.07 249.754,373.736 250.5,372.5C 255.887,367.702 259.22,361.702 260.5,354.5 Z"/></g>
<g><path style="opacity:1" fill="#6e6e6e" d="M 174.5,442.5 C 174.328,443.492 174.662,444.158 175.5,444.5C 174.136,447.668 173.303,451.001 173,454.5C 172.5,465.495 172.333,476.495 172.5,487.5C 171.67,478.009 171.17,468.342 171,458.5C 170.5,468.161 170.334,477.828 170.5,487.5C 169.342,477.675 169.175,467.675 170,457.5C 170.627,452.129 172.127,447.129 174.5,442.5 Z"/></g>
<g><path style="opacity:1" fill="#333333" d="M 175.5,368.5 C 175.479,382.521 177.646,396.188 182,409.5C 182.708,410.381 183.542,411.047 184.5,411.5C 186.167,412.167 187.833,412.833 189.5,413.5C 187.08,413.708 184.747,413.374 182.5,412.5C 181.123,418.264 180.123,424.097 179.5,430C 182.273,435.472 185.94,440.472 190.5,445C 195.181,445.665 199.514,444.665 203.5,442C 208.605,436.613 212.272,430.446 214.5,423.5C 214.328,424.492 214.662,425.158 215.5,425.5C 213.373,431.754 210.207,437.42 206,442.5C 205.726,450.208 206.226,457.875 207.5,465.5C 207.768,467.099 207.434,468.432 206.5,469.5C 204.923,461.227 203.59,452.894 202.5,444.5C 198.734,446.609 194.734,447.443 190.5,447C 186.882,443.577 183.382,440.077 180,436.5C 179.228,436.645 178.561,436.978 178,437.5C 177.256,439.9 176.423,442.233 175.5,444.5C 174.662,444.158 174.328,443.492 174.5,442.5C 177.908,433.512 179.575,424.179 179.5,414.5C 177.961,403.472 176.294,392.472 174.5,381.5C 174.182,376.968 174.515,372.634 175.5,368.5 Z"/></g>
<g><path style="opacity:1" fill="#4c4c4c" d="M 265.5,444.5 C 266.167,444.5 266.833,444.5 267.5,444.5C 266.573,454.175 265.573,463.841 264.5,473.5C 263.686,475.631 263.186,477.964 263,480.5C 262.503,478.19 262.337,475.857 262.5,473.5C 263.866,463.875 264.866,454.208 265.5,444.5 Z"/></g>
<g><path style="opacity:1" fill="#f9f9f9" d="M 539.5,486.5 C 539.5,479.5 539.5,472.5 539.5,465.5C 539.886,458.446 541.886,451.946 545.5,446C 546.833,445.333 548.167,445.333 549.5,446C 552.167,448.667 554.833,451.333 557.5,454C 561.351,454.54 565.185,454.374 569,453.5C 571.261,453.439 573.261,454.106 575,455.5C 578.757,468.307 579.424,481.307 577,494.5C 574.462,501.28 570.129,502.947 564,499.5C 562.826,495.954 562.16,492.287 562,488.5C 561.121,485.654 559.454,484.987 557,486.5C 555.645,491.38 553.145,495.547 549.5,499C 545.834,500.271 543.334,499.104 542,495.5C 541.159,492.372 540.325,489.372 539.5,486.5 Z"/></g>
<g><path style="opacity:1" fill="#f9f9f9" d="M 639.5,498.5 C 635.897,485.294 635.563,471.961 638.5,458.5C 639.254,455.909 640.921,454.076 643.5,453C 647.706,454.072 652.039,454.406 656.5,454C 659.797,451.705 662.797,449.038 665.5,446C 666.833,445.333 668.167,445.333 669.5,446C 674.054,454.182 676.054,463.015 675.5,472.5C 676.143,481.818 674.476,490.651 670.5,499C 668.5,499.667 666.5,499.667 664.5,499C 661.665,494.486 658.832,489.986 656,485.5C 655.228,485.645 654.561,485.978 654,486.5C 652.551,491.398 651.051,496.232 649.5,501C 645.673,501.976 642.34,501.143 639.5,498.5 Z"/></g>
<g><path style="opacity:1" fill="#383838" d="M 597.5,204.5 C 598.096,205.935 598.096,207.602 597.5,209.5C 593.601,217.631 589.435,225.631 585,233.5C 584.667,241.5 584.333,249.5 584,257.5C 583.626,258.416 583.126,259.25 582.5,260C 592.509,258.818 600.176,262.318 605.5,270.5C 604.833,270.5 604.5,270.833 604.5,271.5C 601.971,267.811 598.638,264.978 594.5,263C 581.555,259.641 572.555,263.974 567.5,276C 564.479,284.437 562.479,293.103 561.5,302C 561.676,312.026 566.343,319.026 575.5,323C 582.753,324.557 590.086,324.89 597.5,324C 599.811,323.764 601.811,322.931 603.5,321.5C 605.007,325.042 606.007,328.708 606.5,332.5C 599.371,363.733 592.537,395.066 586,426.5C 583.761,431.077 581.095,435.411 578,439.5C 578.915,455.821 579.582,472.154 580,488.5C 575.158,500.524 570.992,512.858 567.5,525.5C 566.596,524.791 566.263,523.791 566.5,522.5C 567.994,516.185 569.994,510.019 572.5,504C 572.167,503.5 571.833,503 571.5,502.5C 568.097,504.187 565.264,503.52 563,500.5C 561.914,496.378 560.58,492.378 559,488.5C 557.318,492.852 554.818,496.686 551.5,500C 547.176,502.469 543.676,501.636 541,497.5C 542.117,510.788 543.283,524.121 544.5,537.5C 546.012,553.329 539.345,563.829 524.5,569C 521.674,571.522 522.007,573.522 525.5,575C 533.265,576.182 539.932,579.349 545.5,584.5C 548.962,585.482 552.629,585.815 556.5,585.5C 552.267,586.794 547.934,586.794 543.5,585.5C 537.686,580.719 531.019,577.552 523.5,576C 519.612,573.068 519.612,570.068 523.5,567C 534.232,564.771 540.232,558.271 541.5,547.5C 542.165,544.518 542.498,541.352 542.5,538C 542.585,532.266 541.918,526.766 540.5,521.5C 540.296,511.798 539.63,502.132 538.5,492.5C 538.205,490.265 538.539,488.265 539.5,486.5C 540.325,489.372 541.159,492.372 542,495.5C 543.334,499.104 545.834,500.271 549.5,499C 553.145,495.547 555.645,491.38 557,486.5C 559.454,484.987 561.121,485.654 562,488.5C 562.16,492.287 562.826,495.954 564,499.5C 570.129,502.947 574.462,501.28 577,494.5C 579.424,481.307 578.757,468.307 575,455.5C 573.261,454.106 571.261,453.439 569,453.5C 565.185,454.374 561.351,454.54 557.5,454C 554.833,451.333 552.167,448.667 549.5,446C 548.167,445.333 546.833,445.333 545.5,446C 541.886,451.946 539.886,458.446 539.5,465.5C 538.672,471.653 538.172,477.987 538,484.5C 537.5,477.842 537.334,471.175 537.5,464.5C 538.306,456.25 540.806,448.584 545,441.5C 545.662,439.187 546.162,436.854 546.5,434.5C 547.167,434.5 547.5,434.833 547.5,435.5C 546.795,438.244 546.795,440.911 547.5,443.5C 550.938,445.435 553.938,447.935 556.5,451C 560.782,453.005 564.949,452.838 569,450.5C 571.406,450.703 573.406,451.703 575,453.5C 575.333,448.5 575.667,443.5 576,438.5C 579.631,434.871 582.464,430.704 584.5,426C 584.333,425.5 584.167,425 584,424.5C 579.585,429.726 575.251,429.726 571,424.5C 570.029,418.458 568.863,412.458 567.5,406.5C 564.925,411.397 562.259,416.23 559.5,421C 558.167,421.667 556.833,421.667 555.5,421C 553.542,418.252 551.709,415.418 550,412.5C 548.649,418.072 548.149,423.738 548.5,429.5C 547.515,425.366 547.182,421.032 547.5,416.5C 547.991,403.744 546.824,391.077 544,378.5C 541.013,347.766 544.346,317.766 554,288.5C 556.578,271.545 558.744,254.545 560.5,237.5C 560.636,227.63 558.636,218.296 554.5,209.5C 554.5,208.833 554.833,208.5 555.5,208.5C 557.263,210.885 558.763,213.552 560,216.5C 562.429,226.692 563.096,237.025 562,247.5C 560.618,256.501 559.618,265.501 559,274.5C 565.154,267.757 572.487,262.757 581,259.5C 582.348,256.289 583.182,252.956 583.5,249.5C 582.557,244.184 582.39,238.851 583,233.5C 588.407,224.02 593.24,214.354 597.5,204.5 Z"/></g>
<g><path style="opacity:1" fill="#c9c9c9" d="M 547.5,330.5 C 546.631,346.816 546.297,363.15 546.5,379.5C 545.834,372.675 545.5,365.675 545.5,358.5C 545.276,348.944 545.942,339.611 547.5,330.5 Z"/></g>
<g><path style="opacity:1" fill="#f5f5f5" d="M 602.5,323.5 C 603.794,325.048 604.461,327.048 604.5,329.5C 604.213,336.344 603.047,343.011 601,349.5C 597.57,344.486 595.736,338.986 595.5,333C 595.833,330.833 596.167,328.667 596.5,326.5C 598.919,326.086 600.919,325.086 602.5,323.5 Z"/></g>
<g><path style="opacity:1" fill="#fbfbfb" d="M 546.5,379.5 C 546.297,363.15 546.631,346.816 547.5,330.5C 547.336,327.813 547.503,325.146 548,322.5C 550.379,308.323 553.379,294.323 557,280.5C 560.019,275.801 563.852,272.301 568.5,270C 567.206,272.087 566.039,274.254 565,276.5C 563.537,283.222 561.87,289.888 560,296.5C 557.791,308.581 561.958,317.748 572.5,324C 579.349,326.137 586.349,327.303 593.5,327.5C 593.152,336.294 594.985,344.627 599,352.5C 599.667,355.833 599.667,359.167 599,362.5C 593.571,379.882 589.238,397.548 586,415.5C 584.974,419.722 582.807,423.222 579.5,426C 576.975,426.896 574.808,426.396 573,424.5C 571.71,418.228 570.71,411.895 570,405.5C 569.047,403.408 567.714,403.075 566,404.5C 563.56,409.047 561.393,413.713 559.5,418.5C 558.167,419.833 556.833,419.833 555.5,418.5C 553.393,414.619 551.559,410.619 550,406.5C 548.964,397.472 547.798,388.472 546.5,379.5 Z"/></g>
<g><path style="opacity:1" fill="#4c4c4c" d="M 637.5,451.5 C 637.198,454.059 637.532,456.393 638.5,458.5C 635.563,471.961 635.897,485.294 639.5,498.5C 639.5,499.167 639.5,499.833 639.5,500.5C 635.308,494.396 633.641,487.563 634.5,480C 635.214,470.328 636.214,460.828 637.5,451.5 Z"/></g>
<g><path style="opacity:1" fill="#8a8a8a" d="M 537.5,464.5 C 537.334,471.175 537.5,477.842 538,484.5C 538.172,477.987 538.672,471.653 539.5,465.5C 539.5,472.5 539.5,479.5 539.5,486.5C 538.539,488.265 538.205,490.265 538.5,492.5C 537.016,487.075 536.349,481.409 536.5,475.5C 536.501,471.651 536.835,467.984 537.5,464.5 Z"/></g>
<g><path style="opacity:1" fill="#8d8d8d" d="M 262.5,473.5 C 262.337,475.857 262.503,478.19 263,480.5C 263.186,477.964 263.686,475.631 264.5,473.5C 264.46,476.881 264.793,480.214 265.5,483.5C 264.778,483.082 264.278,482.416 264,481.5C 263.601,481.728 263.435,482.062 263.5,482.5C 262.883,482.389 262.383,482.056 262,481.5C 261.199,478.633 261.366,475.966 262.5,473.5 Z"/></g>
<g><path style="opacity:1" fill="#f8f8f8" d="M 672.5,499.5 C 673.461,501.265 673.795,503.265 673.5,505.5C 672.521,508.625 672.187,511.958 672.5,515.5C 671.521,518.625 671.187,521.958 671.5,525.5C 669.964,535.922 670.464,546.255 673,556.5C 675.872,559.037 678.372,561.87 680.5,565C 683.807,566.284 687.141,567.617 690.5,569C 691.833,570.667 691.833,572.333 690.5,574C 686.511,575.331 682.511,576.665 678.5,578C 675.772,580.392 672.772,582.392 669.5,584C 665.5,584.667 661.5,584.667 657.5,584C 655.951,582.786 654.785,581.286 654,579.5C 656.555,553.317 652.721,528.151 642.5,504C 642.667,503.5 642.833,503 643,502.5C 646.429,504.013 649.429,503.347 652,500.5C 653.105,496.877 654.105,493.21 655,489.5C 655.414,489.043 655.914,488.709 656.5,488.5C 657.804,492.968 660.137,496.802 663.5,500C 666.697,502.12 669.697,501.953 672.5,499.5 Z"/></g>
<g><path style="opacity:1" fill="#f7f7f7" d="M 566.5,522.5 C 563.764,529.115 562.098,536.115 561.5,543.5C 561.667,555.505 561.5,567.505 561,579.5C 556.953,584.154 551.786,585.821 545.5,584.5C 539.932,579.349 533.265,576.182 525.5,575C 522.007,573.522 521.674,571.522 524.5,569C 539.345,563.829 546.012,553.329 544.5,537.5C 543.283,524.121 542.117,510.788 541,497.5C 543.676,501.636 547.176,502.469 551.5,500C 554.818,496.686 557.318,492.852 559,488.5C 560.58,492.378 561.914,496.378 563,500.5C 565.264,503.52 568.097,504.187 571.5,502.5C 571.833,503 572.167,503.5 572.5,504C 569.994,510.019 567.994,516.185 566.5,522.5 Z"/></g>
<g><path style="opacity:1" fill="#363636" d="M 620.5,212.5 C 624.847,219.861 628.681,227.528 632,235.5C 632.463,240.176 632.296,244.843 631.5,249.5C 631.313,254.444 632.979,258.611 636.5,262C 640.507,263.337 644.173,265.17 647.5,267.5C 646.909,268.151 646.243,268.818 645.5,269.5C 645.624,270.107 645.957,270.44 646.5,270.5C 650.253,278.838 653.087,287.505 655,296.5C 657.164,307.009 653.998,315.509 645.5,322C 637.963,325.172 630.129,327.005 622,327.5C 621.667,331.5 621.333,335.5 621,339.5C 616.491,346.202 614.824,353.535 616,361.5C 620.612,377.282 624.279,393.282 627,409.5C 627.906,414.126 629.573,418.46 632,422.5C 636.35,428.157 640.016,427.824 643,421.5C 642.935,398.903 647.102,397.903 655.5,418.5C 656.651,419.731 657.817,419.731 659,418.5C 660.586,416.33 661.92,413.996 663,411.5C 666.803,393.684 668.97,375.684 669.5,357.5C 670.491,350.687 670.825,343.687 670.5,336.5C 671.66,349.66 671.827,362.994 671,376.5C 669.407,386.654 667.907,396.821 666.5,407C 667.851,416.118 668.684,425.284 669,434.5C 671.66,443.157 674.326,451.824 677,460.5C 677.551,472.843 677.384,485.176 676.5,497.5C 675.691,499.292 675.191,501.292 675,503.5C 674.798,501.744 674.298,500.078 673.5,498.5C 672.893,498.624 672.56,498.957 672.5,499.5C 669.697,501.953 666.697,502.12 663.5,500C 660.137,496.802 657.804,492.968 656.5,488.5C 655.914,488.709 655.414,489.043 655,489.5C 654.105,493.21 653.105,496.877 652,500.5C 649.429,503.347 646.429,504.013 643,502.5C 642.833,503 642.667,503.5 642.5,504C 652.721,528.151 656.555,553.317 654,579.5C 654.785,581.286 655.951,582.786 657.5,584C 661.5,584.667 665.5,584.667 669.5,584C 672.772,582.392 675.772,580.392 678.5,578C 682.511,576.665 686.511,575.331 690.5,574C 691.833,572.333 691.833,570.667 690.5,569C 687.141,567.617 683.807,566.284 680.5,565C 678.372,561.87 675.872,559.037 673,556.5C 670.464,546.255 669.964,535.922 671.5,525.5C 672.451,526.919 672.784,528.585 672.5,530.5C 672.238,538.22 672.738,545.887 674,553.5C 675.363,555.684 676.863,557.684 678.5,559.5C 682.302,563.576 686.969,566.409 692.5,568C 693.823,568.816 694.489,569.983 694.5,571.5C 694.489,573.017 693.823,574.184 692.5,575C 688.685,576.909 684.685,578.242 680.5,579C 674.368,584.87 667.035,587.37 658.5,586.5C 656.203,584.706 654.037,582.706 652,580.5C 651.667,566.833 651.333,553.167 651,539.5C 648.244,526.135 644.411,513.135 639.5,500.5C 639.5,499.833 639.5,499.167 639.5,498.5C 642.34,501.143 645.673,501.976 649.5,501C 651.051,496.232 652.551,491.398 654,486.5C 654.561,485.978 655.228,485.645 656,485.5C 658.832,489.986 661.665,494.486 664.5,499C 666.5,499.667 668.5,499.667 670.5,499C 674.476,490.651 676.143,481.818 675.5,472.5C 676.054,463.015 674.054,454.182 669.5,446C 668.167,445.333 666.833,445.333 665.5,446C 662.797,449.038 659.797,451.705 656.5,454C 652.039,454.406 647.706,454.072 643.5,453C 640.921,454.076 639.254,455.909 638.5,458.5C 637.532,456.393 637.198,454.059 637.5,451.5C 637.666,447.486 637.499,443.486 637,439.5C 633.837,435.844 631.171,431.844 629,427.5C 624.359,400.284 618.193,373.617 610.5,347.5C 609.994,343.439 609.327,339.439 608.5,335.5C 609.338,335.158 609.672,334.492 609.5,333.5C 609.833,333.5 610.167,333.5 610.5,333.5C 610.807,339.341 611.974,345.008 614,350.5C 615.667,346.5 617.333,342.5 619,338.5C 619.499,334.514 619.666,330.514 619.5,326.5C 616.351,326.585 613.684,325.585 611.5,323.5C 612.167,323.5 612.5,323.167 612.5,322.5C 622.136,326.344 631.803,326.177 641.5,322C 648.946,318.057 652.946,311.89 653.5,303.5C 652.732,295.695 651.232,288.029 649,280.5C 647.153,275.306 644.653,270.472 641.5,266C 637.069,263.19 632.236,262.024 627,262.5C 621.452,261.531 616.952,263.197 613.5,267.5C 613.5,266.833 613.167,266.5 612.5,266.5C 614.612,263.937 617.279,262.104 620.5,261C 624.5,260.667 628.5,260.333 632.5,260C 630.65,256.771 629.65,253.271 629.5,249.5C 630.423,244.517 630.59,239.517 630,234.5C 626.487,227.473 622.987,220.473 619.5,213.5C 619.5,212.833 619.833,212.5 620.5,212.5 Z"/></g>
<g><path style="opacity:1" fill="#f6f6f6" d="M 646.5,407.5 C 647.496,407.414 648.329,407.748 649,408.5C 650.548,413.1 652.715,417.267 655.5,421C 656.833,421.667 658.167,421.667 659.5,421C 661.549,418.404 663.215,415.571 664.5,412.5C 666.067,422.763 667.401,433.097 668.5,443.5C 666.692,443.491 665.025,443.991 663.5,445C 661.053,447.903 658.386,450.57 655.5,453C 651.878,452.955 648.378,452.121 645,450.5C 643.188,450.493 641.688,451.16 640.5,452.5C 639.672,448.204 639.172,443.871 639,439.5C 635.934,435.278 633.101,430.944 630.5,426.5C 630.667,425.833 630.833,425.167 631,424.5C 634.781,429.201 638.781,429.534 643,425.5C 644.928,419.66 646.094,413.66 646.5,407.5 Z"/></g>
<g><path style="opacity:1" fill="#7c7c7c" d="M 676.5,497.5 C 676.638,502.414 675.972,507.081 674.5,511.5C 674.795,509.265 674.461,507.265 673.5,505.5C 673.795,503.265 673.461,501.265 672.5,499.5C 672.56,498.957 672.893,498.624 673.5,498.5C 674.298,500.078 674.798,501.744 675,503.5C 675.191,501.292 675.691,499.292 676.5,497.5 Z"/></g>
<g><path style="opacity:1" fill="#464646" d="M 673.5,505.5 C 674.461,507.265 674.795,509.265 674.5,511.5C 674.276,515.179 673.942,518.846 673.5,522.5C 672.532,520.393 672.198,518.059 672.5,515.5C 672.187,511.958 672.521,508.625 673.5,505.5 Z"/></g>
<g><path style="opacity:1" fill="#7d7d7d" d="M 672.5,515.5 C 672.198,518.059 672.532,520.393 673.5,522.5C 673.806,525.385 673.473,528.052 672.5,530.5C 672.784,528.585 672.451,526.919 671.5,525.5C 671.187,521.958 671.521,518.625 672.5,515.5 Z"/></g>
<g><path style="opacity:1" fill="#393939" d="M 172.5,487.5 C 174.407,500.423 175.74,513.423 176.5,526.5C 176.405,531.872 175.905,537.206 175,542.5C 172.036,548.427 169.036,554.427 166,560.5C 162.965,563.87 159.632,566.87 156,569.5C 152.199,574.498 153.033,578.664 158.5,582C 163.598,582.595 168.598,583.262 173.5,584C 174.928,581.815 176.595,579.815 178.5,578C 182.797,576.857 184.631,574.024 184,569.5C 186.479,566.931 189.146,564.598 192,562.5C 192.566,557.817 192.399,553.15 191.5,548.5C 191.436,546.611 191.936,544.944 193,543.5C 191.975,521.631 196.308,500.964 206,481.5C 206.499,477.514 206.666,473.514 206.5,469.5C 207.434,468.432 207.768,467.099 207.5,465.5C 208.653,471.319 208.819,477.319 208,483.5C 202.198,492.7 198.532,502.7 197,513.5C 196.211,525.753 195.044,537.919 193.5,550C 196.842,558.783 194.508,565.283 186.5,569.5C 185.811,571.444 185.311,573.444 185,575.5C 181.201,578.297 177.701,581.464 174.5,585C 173.127,585.875 171.627,586.375 170,586.5C 166.542,585.714 163.042,585.38 159.5,585.5C 156.87,583.372 154.37,581.039 152,578.5C 151.333,576.5 151.333,574.5 152,572.5C 155.333,567.833 159.333,563.833 164,560.5C 165.973,554.551 168.973,549.217 173,544.5C 173.143,540.381 173.81,536.381 175,532.5C 174.557,517.405 173.057,502.405 170.5,487.5C 170.334,477.828 170.5,468.161 171,458.5C 171.17,468.342 171.67,478.009 172.5,487.5 Z"/></g>
<g><path style="opacity:1" fill="#bebebe" d="M 540.5,521.5 C 541.918,526.766 542.585,532.266 542.5,538C 542.498,541.352 542.165,544.518 541.5,547.5C 541.536,538.815 541.203,530.149 540.5,521.5 Z"/></g>
<g><path style="opacity:1" fill="#616161" d="M 566.5,522.5 C 566.263,523.791 566.596,524.791 567.5,525.5C 566.276,530.445 565.11,535.445 564,540.5C 563.831,553.673 563.331,566.673 562.5,579.5C 562.828,567.322 562.495,555.322 561.5,543.5C 562.098,536.115 563.764,529.115 566.5,522.5 Z"/></g>
<g><path style="opacity:1" fill="#464646" d="M 298.5,458.5 C 299.167,467.833 299.833,477.167 300.5,486.5C 298.637,500.13 296.97,513.797 295.5,527.5C 296.806,532.746 297.639,538.08 298,543.5C 299.357,546.898 301.19,549.898 303.5,552.5C 304.32,554.812 305.153,557.146 306,559.5C 310.669,563.003 314.836,567.003 318.5,571.5C 319.537,573.738 319.703,576.071 319,578.5C 316.475,581.019 313.642,583.186 310.5,585C 306.809,585.42 303.142,585.92 299.5,586.5C 295.227,583.404 291.06,580.07 287,576.5C 285.956,574.285 285.29,571.952 285,569.5C 276.683,565.638 274.183,559.305 277.5,550.5C 276.033,537.875 274.866,525.209 274,512.5C 271.88,501.946 268.38,491.946 263.5,482.5C 263.435,482.062 263.601,481.728 264,481.5C 264.278,482.416 264.778,483.082 265.5,483.5C 269.742,491.387 272.908,499.72 275,508.5C 276.665,522.026 278.165,535.526 279.5,549C 278.667,553.488 278.5,557.988 279,562.5C 281.479,565.069 284.146,567.402 287,569.5C 287.333,571.5 287.667,573.5 288,575.5C 291.775,576.942 294.608,579.442 296.5,583C 302.271,583.367 307.937,582.7 313.5,581C 316.461,578.845 317.628,576.012 317,572.5C 313.3,568.465 309.3,564.798 305,561.5C 302.876,555.919 300.21,550.586 297,545.5C 294.642,534.961 293.975,524.294 295,513.5C 296.279,507.55 297.279,501.55 298,495.5C 298.5,483.171 298.667,470.838 298.5,458.5 Z"/></g>
<g><path style="opacity:1" fill="#292929" d="M 561.5,543.5 C 562.495,555.322 562.828,567.322 562.5,579.5C 561.5,582.5 559.5,584.5 556.5,585.5C 552.629,585.815 548.962,585.482 545.5,584.5C 551.786,585.821 556.953,584.154 561,579.5C 561.5,567.505 561.667,555.505 561.5,543.5 Z"/></g>
<g><path style="opacity:1" fill="#e0e0e0" d="M 694.5,571.5 C 698.495,573.289 699.162,575.789 696.5,579C 696.833,579.333 697.167,579.667 697.5,580C 693.275,581.476 688.942,582.81 684.5,584C 677.949,590.076 670.282,592.076 661.5,590C 659.944,589.28 658.944,588.113 658.5,586.5C 667.035,587.37 674.368,584.87 680.5,579C 684.685,578.242 688.685,576.909 692.5,575C 693.823,574.184 694.489,573.017 694.5,571.5 Z"/></g>
<g><path style="opacity:1" fill="#e5e5e5" d="M 318.5,571.5 C 321.789,574.048 324.122,577.381 325.5,581.5C 320.427,588.036 313.76,591.37 305.5,591.5C 302.874,590.579 300.874,588.913 299.5,586.5C 303.142,585.92 306.809,585.42 310.5,585C 313.642,583.186 316.475,581.019 319,578.5C 319.703,576.071 319.537,573.738 318.5,571.5 Z"/></g>
</svg>
